<?xml version="1.0" standalone="no"?>
<!DOCTYPE svg PUBLIC "-//W3C//DTD SVG 20010904//EN"
 "http://www.w3.org/TR/2001/REC-SVG-20010904/DTD/svg10.dtd">
<svg version="1.0" xmlns="http://www.w3.org/2000/svg"
 width="512.000000pt" height="512.000000pt" viewBox="0 0 512.000000 512.000000"
 preserveAspectRatio="xMidYMid meet">
<metadata>
Created by potrace 1.11, written by Peter Selinger 2001-2013
</metadata>
<g transform="translate(0.000000,512.000000) scale(0.100000,-0.100000)"
fill="#000000" stroke="none">
<path d="M2856 4607 c-13 -29 -35 -62 -49 -74 -17 -14 -24 -28 -20 -42 3 -11
-2 -30 -10 -42 -11 -15 -13 -28 -6 -46 7 -20 4 -28 -15 -46 -17 -16 -24 -34
-24 -62 -2 -48 -6 -69 -26 -129 -9 -26 -16 -53 -16 -61 0 -8 -9 -24 -19 -34
-30 -30 -40 -55 -37 -87 2 -16 -2 -36 -9 -44 -12 -14 -66 -170 -80 -230 -10
-42 -12 -130 -4 -130 5 0 6 -6 4 -12 -12 -35 -14 -138 -3 -138 6 0 8 -3 4 -7
-7 -8 -11 -9 -37 -12 -5 0 -8 -5 -5 -9 3 -5 -1 -9 -9 -9 -8 0 -12 4 -9 9 8 13
-10 10 -25 -4 -8 -7 -11 -8 -8 -2 4 6 -4 20 -16 31 -38 32 -47 36 -41 16 5
-17 5 -17 -8 -1 -13 15 -15 15 -26 -3 -7 -11 -10 -24 -7 -29 3 -6 1 -18 -4
-27 -6 -10 -11 -15 -11 -11 0 4 -19 1 -41 -7 -51 -18 -60 -19 -53 -1 3 7 -2
16 -10 19 -9 4 -16 2 -16 -3 0 -6 4 -10 9 -10 5 0 8 -7 7 -15 -3 -18 -16 -32
-16 -17 0 7 -10 11 -22 11 -17 -1 -19 -2 -5 -6 9 -2 17 -9 17 -14 0 -5 -3 -8
-7 -7 -5 1 -18 -3 -29 -10 -12 -6 -24 -8 -28 -5 -3 3 -6 1 -6 -5 0 -7 -4 -12
-9 -12 -5 0 -7 13 -6 30 1 16 -1 27 -6 25 -4 -3 -6 -15 -4 -26 6 -28 -52 -64
-74 -46 -14 10 -14 10 -3 -5 14 -17 1 -34 -18 -23 -6 4 -9 1 -8 -7 2 -7 -5
-12 -14 -12 -9 1 -14 -4 -12 -10 3 -7 -4 -21 -16 -31 -11 -10 -20 -13 -20 -8
0 19 -28 22 -42 5 -11 -15 -11 -15 3 -5 9 7 18 10 21 7 8 -7 -53 -74 -67 -74
-5 0 -3 5 5 10 9 6 10 10 3 10 -6 0 -15 -5 -19 -12 -5 -7 -12 -5 -22 8 -12 16
-14 16 -9 2 3 -10 2 -20 -3 -23 -6 -4 -10 -12 -10 -18 0 -9 2 -9 8 -1 4 6 15
10 25 8 10 -1 14 2 11 8 -4 7 -2 8 5 4 15 -10 4 -26 -17 -26 -13 0 -14 -2 -4
-9 11 -7 10 -9 -3 -14 -9 -4 -14 -3 -11 2 3 5 -3 11 -14 14 -11 3 -18 1 -15
-3 3 -5 -1 -10 -7 -13 -11 -3 -11 -9 0 -26 7 -11 8 -21 3 -21 -11 0 -26 38
-23 56 1 6 -4 11 -13 11 -8 0 -11 -5 -8 -10 3 -6 6 -25 5 -44 -1 -27 2 -33 20
-33 17 0 18 -2 8 -15 -7 -8 -18 -15 -24 -15 -6 0 -5 4 3 9 11 7 8 11 -10 16
-13 5 -26 7 -28 6 -5 -3 -21 21 -21 32 0 5 7 1 16 -7 20 -20 19 -21 20 17 1
17 -1 24 -3 15 -2 -10 -7 -18 -10 -18 -3 0 -12 8 -19 18 -13 16 -14 16 -7 -2
4 -13 3 -17 -5 -12 -6 3 -13 2 -17 -4 -4 -6 -11 -7 -17 -4 -7 4 -8 2 -4 -5 6
-9 11 -9 21 -1 9 8 14 6 19 -6 8 -22 8 -26 -4 -19 -6 4 -7 -1 -3 -12 3 -10 3
-15 -1 -11 -5 4 -18 -5 -31 -20 -20 -23 -25 -24 -39 -13 -10 8 -16 9 -16 3 0
-6 5 -14 10 -17 16 -10 2 -24 -20 -20 -23 4 -24 1 -9 -26 5 -11 15 -16 21 -13
7 4 8 3 4 -5 -4 -6 -12 -8 -18 -5 -7 5 -9 1 -5 -9 3 -10 2 -17 -3 -17 -6 0
-10 7 -10 16 0 8 -4 13 -9 10 -5 -4 -11 -3 -13 2 -1 4 -19 4 -38 1 -19 -4 -27
-7 -18 -8 12 -1 16 -9 14 -26 -3 -29 -16 -46 -16 -22 0 9 -5 17 -10 17 -7 0
-7 -6 0 -19 7 -13 7 -22 0 -26 -5 -3 -10 0 -10 7 -1 8 -7 5 -16 -7 -12 -17
-16 -18 -24 -5 -10 16 -3 33 11 25 5 -4 9 -2 9 2 0 5 -10 14 -22 22 -13 7 -20
10 -16 6 4 -5 0 -14 -10 -22 -16 -12 -16 -13 1 -7 21 8 22 0 1 -20 -9 -9 -11
-16 -4 -16 6 0 8 -5 4 -12 -5 -7 -11 -5 -21 7 -7 11 -13 16 -13 12 0 -4 -9 -3
-20 3 -16 8 -24 8 -35 -4 -14 -13 -13 -16 2 -24 12 -8 20 -6 29 6 10 14 11 12
9 -11 -2 -15 1 -27 6 -27 9 0 13 14 10 35 -1 6 5 1 14 -9 8 -10 12 -23 8 -29
-3 -6 -2 -8 3 -5 5 3 14 0 20 -6 8 -9 7 -18 -6 -34 -10 -11 -21 -18 -26 -14
-5 4 -2 -2 6 -13 21 -30 24 -32 17 -13 -3 9 2 27 13 41 11 13 17 27 14 30 -3
3 4 8 15 12 12 3 18 11 15 17 -4 6 -2 8 4 4 6 -3 13 -2 17 4 3 5 2 10 -3 10
-6 0 -13 7 -16 16 -6 15 -4 15 11 3 14 -12 16 -12 8 0 -6 11 -4 13 8 8 9 -3
19 -1 23 5 5 7 2 8 -6 3 -8 -5 -11 -3 -8 5 2 8 11 16 19 18 8 3 11 1 6 -3 -4
-5 0 -19 8 -32 9 -13 12 -23 8 -22 -20 3 -23 -2 -8 -17 9 -9 14 -23 10 -31 -4
-12 0 -14 15 -10 14 4 29 -3 45 -19 14 -14 30 -22 37 -18 7 4 8 3 4 -4 -8 -14
-35 -3 -55 22 -9 11 -19 12 -36 6 -13 -5 -26 -6 -29 -2 -4 3 -5 -4 -3 -16 4
-26 17 -41 17 -19 0 9 8 15 19 14 11 0 17 -5 15 -9 -3 -5 -9 -6 -14 -3 -4 3
-11 -2 -14 -11 -6 -15 -8 -15 -25 0 -16 14 -19 15 -24 2 -3 -8 1 -17 9 -20 8
-3 14 -11 13 -18 0 -10 -2 -10 -6 0 -2 6 -9 12 -14 12 -6 0 -5 -9 1 -21 8 -13
18 -18 28 -15 14 5 14 4 -1 -8 -18 -14 -17 -15 3 -21 18 -6 19 -9 8 -23 -11
-13 -10 -15 5 -9 11 4 16 3 12 -4 -4 -5 -16 -7 -27 -3 -17 5 -18 3 -9 -14 10
-18 8 -20 -8 -17 -11 2 -22 -3 -25 -10 -3 -9 0 -12 10 -8 8 3 14 -1 14 -8 -1
-16 -30 -58 -30 -43 0 6 5 15 11 21 7 7 5 12 -8 17 -9 4 -14 4 -10 0 4 -4 2
-13 -4 -21 -18 -21 8 -48 30 -31 14 12 14 11 2 -4 -7 -10 -17 -16 -21 -13 -5
3 -10 2 -13 -2 -2 -5 -2 -3 -1 4 2 6 -6 11 -17 10 -11 -1 -19 -9 -19 -20 0
-10 -4 -16 -9 -12 -5 3 -13 0 -17 -6 -4 -8 -3 -9 4 -5 7 4 12 2 12 -3 0 -6 -6
-11 -12 -11 -9 0 -9 -3 1 -9 20 -13 22 -51 5 -78 -10 -16 -11 -24 -2 -29 7 -5
8 -3 3 6 -6 9 -4 11 5 5 9 -6 11 -4 5 5 -5 9 -4 11 3 6 8 -4 10 -2 6 7 -3 8
-1 18 5 22 6 3 11 2 11 -4 0 -6 7 -8 15 -5 8 4 12 10 9 15 -3 5 -10 6 -16 3
-6 -4 -6 1 1 14 12 23 0 38 -21 26 -9 -5 -9 -2 1 9 9 12 10 17 2 17 -7 0 -9 5
-6 10 5 8 11 7 21 -1 7 -6 12 -15 9 -19 -3 -5 -1 -11 3 -14 5 -3 15 6 22 19 7
14 17 25 22 25 5 0 -3 -16 -18 -35 -22 -29 -24 -38 -14 -50 7 -8 17 -12 23 -8
5 3 7 1 3 -5 -3 -5 0 -12 6 -15 7 -3 -6 -4 -30 -2 -42 2 -43 2 -22 -17 11 -10
20 -22 20 -25 0 -3 -8 1 -19 11 -17 15 -19 15 -32 -1 -12 -15 -12 -16 4 -10
24 9 21 -1 -5 -24 -13 -10 -18 -18 -12 -19 6 0 14 3 18 7 13 13 35 11 29 -3
-3 -8 -8 -14 -12 -14 -3 0 -16 -8 -29 -18 l-23 -18 28 1 c16 0 27 6 25 13 -1
7 2 12 8 12 5 0 8 -10 6 -22 -2 -18 -9 -22 -27 -20 -20 4 -22 2 -9 -13 11 -13
11 -16 0 -13 -8 2 -15 -6 -17 -17 -1 -11 0 -15 3 -8 6 14 54 -3 54 -20 0 -5
-7 -4 -15 3 -8 7 -22 9 -31 6 -15 -6 -14 -10 7 -33 13 -15 16 -22 7 -14 -9 7
-21 10 -26 7 -5 -3 -18 2 -28 10 -10 9 -13 12 -5 8 10 -5 12 -3 6 6 -5 8 -4
11 3 6 6 -3 13 -2 17 4 3 5 1 11 -4 11 -6 1 -16 2 -23 3 -6 0 -13 7 -16 14 -3
11 0 12 18 2 12 -7 20 -7 16 -2 -3 6 0 13 6 15 9 4 7 6 -3 6 -11 1 -15 10 -14
29 1 32 -22 62 -34 43 -6 -9 -11 -8 -20 3 -10 12 -18 13 -37 4 -13 -6 -22 -13
-20 -15 2 -3 14 1 26 7 20 11 21 10 15 -12 -5 -18 -4 -20 4 -8 9 13 11 13 11
-3 0 -9 3 -16 8 -16 20 3 30 -3 35 -23 6 -22 6 -22 -14 2 -16 20 -18 21 -10 4
6 -12 8 -24 4 -27 -3 -4 -1 -13 6 -20 8 -11 7 -22 -5 -46 -8 -17 -19 -31 -24
-31 -5 0 -16 -7 -25 -16 -13 -13 -13 -19 -3 -32 11 -13 10 -14 -10 -8 -13 5
-22 3 -22 -3 0 -6 9 -11 20 -11 11 0 20 -7 20 -15 0 -15 10 -19 43 -16 9 1 17
-3 17 -9 0 -7 -7 -9 -17 -5 -14 5 -15 4 -6 -6 10 -10 15 -9 28 1 10 8 15 9 15
1 0 -6 -5 -11 -11 -11 -5 0 -7 -4 -4 -10 7 -11 -11 -50 -23 -50 -4 0 -8 9 -9
19 -1 14 3 18 13 14 8 -3 14 0 14 6 0 6 -7 11 -15 11 -9 0 -18 7 -21 15 -7 17
-44 21 -44 4 0 -6 7 -9 15 -6 8 4 17 2 20 -2 3 -5 -2 -12 -11 -15 -10 -4 -14
-12 -10 -22 5 -12 2 -15 -11 -10 -17 6 -17 5 0 -8 22 -17 22 -29 -1 -22 -11 4
-28 -2 -42 -14 -15 -13 -27 -17 -34 -11 -8 7 -11 2 -10 -17 1 -17 -6 -33 -19
-44 -18 -14 -19 -18 -8 -32 11 -13 17 -14 30 -4 14 11 14 11 4 -3 -13 -16 -8
-29 9 -29 5 0 6 5 2 12 -4 7 -3 8 5 4 6 -4 9 -12 6 -17 -4 -5 -2 -9 2 -9 13 0
34 39 24 45 -5 3 -12 -1 -14 -7 -4 -9 -6 -9 -6 -1 -1 6 6 19 15 27 8 9 11 16
5 16 -6 0 -11 8 -11 18 1 16 1 16 14 0 13 -18 26 -14 26 7 0 15 -43 17 -52 2
-6 -9 -8 -8 -8 3 1 18 49 55 58 45 4 -4 1 -10 -5 -12 -18 -6 -16 -20 1 -20 8
0 14 5 13 11 -1 6 6 10 16 8 20 -3 21 2 7 29 -7 13 -7 19 0 19 5 0 10 -7 10
-16 0 -8 4 -12 10 -9 5 3 10 -1 10 -9 0 -9 -5 -16 -11 -16 -5 0 -7 -4 -4 -10
3 -5 0 -7 -8 -4 -8 3 -18 0 -22 -6 -3 -6 -1 -9 5 -8 13 3 23 -30 14 -44 -3 -4
-13 -4 -24 2 -21 11 -50 -13 -30 -25 8 -5 8 -11 -1 -21 -6 -8 -9 -17 -6 -20 3
-3 12 3 19 15 7 12 17 21 22 21 4 0 2 -8 -5 -17 -12 -14 -12 -16 2 -11 9 4 16
1 16 -7 0 -10 -5 -11 -16 -5 -12 6 -24 1 -43 -20 -29 -31 -26 -50 4 -23 10 9
21 13 25 10 3 -4 13 -1 21 6 13 10 14 9 6 -8 -6 -11 -9 -30 -8 -43 1 -25 -11
-38 -21 -22 -5 8 -12 7 -23 -2 -14 -10 -15 -10 -4 2 15 18 16 38 1 23 -6 -6
-17 -9 -24 -7 -8 3 -12 -2 -12 -11 1 -10 -8 -21 -20 -26 -17 -6 -21 -5 -17 6
3 8 11 13 17 12 6 -1 11 3 12 8 0 6 4 16 9 24 6 10 5 16 -2 19 -8 2 -3 11 10
23 13 10 18 18 11 19 -6 0 -15 -5 -18 -10 -5 -8 -11 -7 -21 1 -10 8 -14 8 -14
0 0 -6 4 -11 9 -11 13 0 7 -28 -8 -43 -11 -10 -12 -8 -7 8 3 11 1 27 -5 35 -9
13 -10 12 -5 -3 3 -11 2 -16 -4 -12 -12 7 -13 35 -2 35 4 0 8 11 8 24 0 14 -4
22 -10 19 -5 -4 -6 -1 -1 7 5 9 4 11 -3 6 -9 -5 -11 3 -8 27 4 30 2 34 -13 30
-11 -3 -22 0 -25 6 -4 6 1 8 12 6 13 -2 18 3 17 20 0 13 -6 29 -12 35 -10 7
-10 7 -3 -2 13 -16 13 -31 0 -23 -6 3 -13 0 -16 -8 -5 -14 -34 -19 -34 -6 0
14 -44 6 -69 -13 -13 -10 -19 -18 -13 -18 6 0 17 7 26 15 8 8 16 15 19 15 8 0
4 -35 -6 -48 -7 -9 -5 -11 8 -6 12 5 16 4 11 -4 -3 -6 -2 -13 3 -17 10 -5 5
40 -5 57 -3 4 2 8 11 8 10 0 13 -5 9 -12 -6 -10 -5 -10 8 -1 15 13 28 8 28 -9
0 -5 -4 -7 -8 -4 -5 3 -9 -1 -9 -8 0 -8 6 -12 14 -9 22 9 47 -5 35 -20 -8 -9
-6 -16 9 -26 26 -16 18 -26 -10 -12 -14 8 -22 8 -27 -1 -4 -7 -3 -8 4 -4 11 7
17 -6 13 -27 -1 -5 4 -5 10 -1 9 5 10 2 6 -9 -3 -10 -2 -17 4 -17 6 0 7 -5 3
-12 -4 -7 -3 -8 4 -4 7 4 12 1 12 -8 0 -9 -7 -13 -19 -11 -14 3 -18 -1 -14
-11 5 -13 17 -18 36 -15 5 1 6 -8 2 -19 -6 -18 -3 -20 18 -16 13 2 30 0 38 -6
11 -7 9 -8 -6 -4 -17 5 -16 3 5 -15 15 -13 18 -19 8 -15 -25 7 -29 -17 -5 -30
20 -11 20 -12 -3 -19 l-23 -7 24 -14 c13 -7 18 -13 12 -14 -7 0 -13 -5 -13
-11 0 -5 6 -7 13 -3 6 4 8 3 4 -2 -4 -4 -18 -9 -30 -9 -12 0 -22 -6 -22 -15
-1 -8 -6 -14 -11 -13 -6 1 -11 -5 -11 -13 0 -8 4 -14 8 -14 9 0 23 32 20 45
-1 6 3 5 10 -2 6 -6 18 -9 26 -6 8 3 18 2 22 -3 3 -5 16 -15 29 -22 27 -15 30
1 3 20 -16 12 -17 16 -6 32 15 20 35 13 34 -12 0 -14 -2 -14 -8 2 -5 14 -10
16 -15 7 -9 -14 12 -43 25 -35 6 3 8 -6 5 -19 -3 -15 1 -27 8 -30 7 -3 16 -16
19 -29 l6 -23 -18 24 c-14 18 -20 21 -26 11 -6 -9 -4 -11 5 -5 8 5 11 4 7 -2
-3 -5 4 -21 17 -34 33 -36 52 -73 34 -67 -7 3 -13 10 -13 16 0 16 -11 19 -22
8 -5 -6 -2 -6 7 -1 12 7 13 6 3 -7 -7 -8 -9 -19 -5 -23 4 -5 2 -5 -4 -2 -7 4
-10 23 -8 44 2 23 0 33 -5 25 -4 -8 -11 -13 -15 -13 -3 1 -7 1 -8 0 -35 -11
-44 -4 -44 37 0 26 4 40 11 37 5 -4 6 -2 2 3 -5 5 -12 9 -15 9 -4 0 -13 4 -19
8 -8 5 -13 4 -13 -2 0 -6 6 -11 13 -11 8 0 7 -4 -3 -10 -8 -5 -10 -10 -5 -10
6 0 11 -9 12 -20 1 -11 -2 -20 -8 -20 -5 0 -9 -4 -9 -10 0 -5 6 -7 13 -4 8 3
13 -4 14 -16 1 -11 -2 -18 -8 -15 -5 4 -9 2 -9 -3 0 -5 13 -9 30 -10 20 0 31
5 35 19 4 11 11 16 17 13 6 -4 6 -9 1 -13 -5 -3 -8 -17 -7 -31 1 -14 -3 -32
-10 -40 -9 -12 -8 -13 4 -4 17 12 30 12 48 1 19 -12 14 -33 -10 -44 -15 -6
-18 -12 -10 -17 7 -4 12 -2 12 5 0 9 3 9 14 0 11 -9 14 -9 13 1 -2 54 16 62
51 25 l21 -23 -20 -12 c-23 -15 -21 -34 3 -38 9 -1 19 7 22 19 4 17 7 18 20 7
9 -7 16 -22 16 -35 0 -12 9 -30 20 -40 11 -10 17 -23 13 -29 -3 -6 -2 -8 2 -3
9 7 65 -40 65 -55 0 -4 -7 -8 -16 -8 -8 0 -13 -4 -10 -9 3 -5 -4 -11 -17 -15
-18 -5 -20 -8 -7 -16 14 -9 12 -11 -20 -14 -8 0 -15 -5 -15 -11 0 -5 -4 -15
-8 -22 -4 -6 -3 -14 3 -18 9 -6 14 1 11 18 0 4 4 7 9 7 13 0 13 -23 -1 -37 -8
-8 -8 -13 0 -18 6 -3 10 -1 9 6 -2 6 2 13 8 16 7 2 10 -6 9 -22 -2 -14 2 -28
7 -32 6 -3 8 -1 5 4 -4 6 0 14 9 17 12 4 14 1 9 -14 -4 -12 -2 -20 5 -20 6 0
9 4 5 9 -3 5 0 13 7 17 17 11 88 12 94 2 3 -5 13 1 23 13 15 19 18 20 30 5 11
-13 11 -19 1 -31 -7 -8 -17 -15 -23 -15 -7 0 -7 4 1 12 7 7 12 16 12 22 0 5
-8 1 -18 -10 -16 -17 -17 -20 -4 -30 12 -9 22 -4 46 22 34 38 52 45 36 15 -13
-25 -13 -31 1 -31 5 0 7 5 4 10 -3 6 -2 10 4 10 5 0 8 9 6 20 -2 11 0 20 6 20
5 0 9 5 9 10 0 6 -11 4 -24 -5 -21 -14 -25 -14 -36 0 -26 32 15 57 55 34 6 -4
18 -5 28 -4 9 2 15 -1 11 -6 -3 -5 -10 -7 -15 -4 -5 4 -9 1 -9 -4 0 -14 6 -14
32 0 14 8 23 8 31 0 6 -6 24 -11 39 -11 16 0 31 -7 34 -15 4 -8 10 -15 16 -15
5 0 7 4 4 9 -7 11 13 9 32 -2 17 -11 6 -27 -19 -27 -10 0 -18 -3 -18 -7 3 -20
-2 -30 -17 -30 -15 0 -15 2 0 13 10 7 14 14 9 17 -9 6 -40 -14 -41 -26 -2 -20
-10 -31 -18 -24 -5 4 -3 12 5 16 18 11 16 24 -6 33 -13 6 -11 7 8 3 18 -3 26
0 26 10 0 8 -4 15 -9 15 -5 0 -7 4 -4 9 3 5 -6 8 -19 8 -17 0 -24 -4 -23 -15
2 -8 -4 -17 -12 -19 -13 -4 -13 -3 0 6 11 8 11 11 2 11 -7 0 -17 -10 -22 -22
-8 -20 -9 -21 -9 -4 -1 11 9 31 22 44 l22 25 -22 -14 c-13 -8 -23 -17 -23 -21
0 -5 -6 -8 -14 -8 -8 0 -17 -7 -20 -16 -8 -21 -8 -24 5 -24 5 0 8 4 4 9 -3 5
-1 12 5 16 5 3 10 2 10 -4 0 -5 2 -16 5 -23 5 -11 -5 -14 -40 -14 -36 1 -44 4
-40 16 3 8 -2 6 -10 -5 -14 -18 -14 -21 0 -31 8 -6 13 -13 10 -16 -3 -2 2 -5
10 -5 18 0 20 14 3 20 -7 2 -10 8 -6 12 11 12 40 -16 34 -32 -4 -8 -1 -11 5
-8 6 4 8 14 5 22 -4 9 -1 13 6 10 7 -2 26 7 42 22 16 14 25 20 21 12 -6 -11
-4 -13 9 -8 12 5 16 3 14 -5 -3 -7 -11 -13 -19 -13 -17 0 -59 -27 -59 -38 0
-4 5 -5 11 -1 6 3 16 0 21 -7 6 -10 7 -6 2 11 l-6 25 26 -24 c14 -14 26 -21
26 -17 0 4 -10 16 -22 27 -27 22 -12 25 19 4 20 -14 22 -14 27 3 7 22 36 25
36 5 0 -8 -4 -12 -8 -9 -4 2 -13 -4 -20 -15 -7 -10 -10 -19 -7 -19 10 0 42 34
48 52 3 9 17 24 31 33 20 14 28 14 45 3 18 -11 23 -11 31 2 7 10 10 11 10 2 0
-7 -7 -15 -15 -18 -16 -6 -21 -24 -7 -24 5 0 15 11 22 25 7 13 17 22 22 19 4
-3 -1 -19 -12 -35 -12 -16 -17 -29 -11 -29 6 0 11 5 11 10 0 14 38 50 53 50 6
-1 3 -8 -9 -18 -35 -29 -57 -82 -34 -82 5 0 7 7 3 15 -3 10 9 30 36 55 23 22
39 40 35 40 -5 0 1 6 11 14 18 13 17 14 -8 11 -32 -4 -45 10 -17 18 11 3 17 1
14 -4 -6 -10 38 -5 55 5 18 11 81 15 81 5 0 -6 -4 -8 -8 -5 -5 3 -8 -8 -8 -24
0 -28 5 -29 33 -7 9 6 10 15 2 28 -8 16 -6 19 16 20 14 1 31 2 38 3 6 1 18 -5
25 -14 11 -13 11 -13 6 1 -8 25 53 61 78 46 10 -7 18 -19 19 -27 0 -11 2 -11
6 -2 4 10 9 9 20 -5 8 -10 12 -13 9 -6 -4 6 -1 15 5 19 8 4 9 3 5 -4 -4 -7 -2
-12 4 -12 6 0 3 -11 -6 -25 -9 -14 -19 -23 -22 -20 -3 3 -13 -9 -23 -25 -11
-17 -24 -30 -30 -30 -8 0 -8 -4 1 -15 10 -12 10 -18 -1 -33 -13 -15 -12 -16 3
-4 9 8 23 10 29 6 8 -5 9 -3 5 5 -5 7 0 21 10 32 21 23 12 26 -11 3 -9 -9 -19
-13 -23 -9 -4 4 4 15 17 26 13 10 20 19 15 19 -11 0 29 29 40 30 5 0 1 -9 -9
-20 -10 -11 -13 -20 -7 -20 7 0 12 6 12 13 1 6 8 -1 17 -18 9 -16 21 -33 27
-37 15 -10 93 -3 108 9 7 6 24 9 37 7 31 -5 22 5 -10 11 -13 3 -26 -1 -30 -7
-5 -7 -11 -9 -14 -6 -4 4 -3 13 1 20 5 7 10 24 10 38 2 36 3 37 14 20 5 -8 7
-23 4 -32 -3 -10 0 -18 6 -18 6 0 8 4 5 10 -9 15 5 12 22 -5 17 -17 40 -14 36
4 -2 6 -4 16 -5 22 -2 6 3 14 11 17 8 3 11 0 7 -7 -4 -6 -2 -19 3 -28 6 -11
11 -13 11 -5 0 7 5 10 12 6 6 -4 8 -3 5 3 -10 16 23 25 39 12 14 -11 15 -10
18 14 0 6 7 13 14 13 35 4 36 5 19 18 -11 8 -14 17 -8 20 5 4 16 -2 23 -12 13
-18 14 -18 32 0 11 10 15 18 10 18 -6 0 -16 -6 -23 -13 -10 -10 -12 -9 -11 3
4 31 0 42 -15 36 -25 -9 -16 8 11 21 22 10 24 10 19 -7 -8 -24 11 -35 31 -19
13 11 15 10 12 -3 -3 -16 -1 -18 24 -18 9 0 9 3 1 11 -6 6 -9 18 -6 25 7 19
-11 18 -27 -1 -14 -17 -30 -20 -30 -6 0 5 9 12 19 16 12 3 18 12 15 20 -3 7 4
18 15 25 22 11 21 13 26 -40 2 -14 3 -29 4 -34 0 -5 9 -2 19 7 16 15 20 17 40
17 4 0 -2 7 -12 15 -11 8 -16 18 -13 22 4 4 15 -1 24 -10 16 -15 19 -15 50 4
18 11 33 17 33 13 0 -4 11 3 25 16 14 13 25 20 25 16 0 -5 6 -3 13 3 8 6 16 8
20 5 3 -3 4 6 3 21 -2 16 1 24 8 22 6 -3 10 -10 9 -16 -2 -6 2 -11 7 -11 6 0
10 5 10 11 0 6 7 8 16 5 10 -4 13 -2 8 6 -5 8 -2 9 9 5 10 -4 22 1 30 13 8 11
17 17 20 13 4 -3 7 -1 7 4 0 6 -5 13 -12 15 -7 3 -2 13 12 26 13 12 26 19 29
16 3 -3 -3 -12 -13 -20 -15 -11 -16 -14 -4 -14 8 0 23 9 33 20 10 11 15 20 10
20 -4 0 -2 6 4 14 9 10 5 19 -15 40 -15 14 -31 27 -35 27 -19 3 -25 5 -47 18
-22 12 -23 11 -13 -8 8 -14 8 -22 -1 -27 -7 -4 -8 -3 -4 4 4 7 2 12 -3 12 -6
0 -11 9 -11 20 0 18 -10 25 -32 21 -5 0 -8 5 -8 12 0 8 -3 7 -9 -3 -13 -19 -3
-34 14 -20 9 8 14 6 19 -6 4 -10 1 -21 -5 -25 -7 -4 -13 -16 -14 -27 -1 -16 4
-20 24 -19 27 2 31 -2 31 -29 0 -8 -5 -12 -10 -9 -6 4 -7 11 -4 17 4 7 2 8 -5
4 -6 -4 -9 -12 -6 -17 7 -11 3 -11 -19 -3 -15 6 -15 8 1 21 14 12 12 11 -9 -1
-25 -15 -27 -15 -25 4 1 11 5 20 9 20 19 0 6 16 -14 17 -16 2 -19 0 -9 -6 11
-7 11 -9 0 -14 -11 -4 -11 -6 -1 -6 7 -1 10 -6 7 -11 -4 -6 -14 -1 -25 12 -11
13 -20 21 -20 18 -8 -37 -8 -50 1 -50 5 0 8 -4 5 -9 -5 -8 -34 -8 -43 -1 -2 2
-8 3 -13 4 -6 0 -15 8 -21 16 -9 12 -10 12 -5 -3 3 -10 6 -21 6 -23 0 -2 9 -4
20 -4 11 0 20 -5 20 -11 0 -6 -9 -8 -22 -4 -21 5 -21 5 2 -9 20 -12 21 -15 7
-16 -10 0 -16 -4 -13 -8 2 -4 1 -14 -3 -21 -6 -9 -11 -10 -15 -2 -4 6 -3 11 3
11 5 0 8 8 7 17 -3 21 -35 26 -43 7 -3 -8 -9 -11 -14 -8 -5 3 -9 0 -9 -5 0
-14 17 -14 25 -1 3 6 12 10 18 9 9 0 9 -2 0 -5 -7 -3 -10 -11 -7 -18 3 -8 -7
-12 -31 -13 -29 0 -33 2 -24 13 6 8 8 14 3 14 -5 1 2 8 16 16 14 8 17 13 7 10
-10 -3 -15 -2 -12 3 3 5 1 13 -5 16 -6 4 -10 3 -9 -2 3 -18 -1 -33 -10 -33 -5
0 -8 8 -6 18 1 9 -3 23 -9 31 -8 11 -8 13 1 8 13 -8 22 3 28 34 6 28 18 41 13
14 -2 -12 2 -19 9 -18 7 2 17 -6 23 -17 9 -16 7 -18 -11 -15 -18 4 -19 2 -8
-13 21 -27 23 -28 16 -7 -7 19 -6 19 7 2 9 -12 16 -14 21 -8 3 6 1 11 -6 11
-7 0 -10 3 -6 6 3 3 2 16 -3 28 -12 33 5 54 40 52 33 -2 38 5 15 24 -8 7 -15
17 -15 23 0 5 9 0 19 -12 14 -16 21 -18 25 -9 3 7 3 2 0 -11 -4 -15 -2 -21 4
-17 6 3 13 0 16 -6 3 -7 3 2 0 20 -4 20 -2 32 6 32 6 0 8 4 5 10 -12 19 11 35
53 36 29 1 48 8 58 20 14 18 14 18 8 -1 -4 -15 -4 -17 4 -6 6 8 8 20 5 27 -2
7 1 21 7 31 10 16 11 16 6 1 -3 -10 -1 -28 4 -40 6 -16 9 -18 9 -6 1 10 8 15
19 13 9 -1 26 2 37 8 11 6 25 10 32 9 6 -1 14 2 18 8 3 5 14 10 25 10 10 0 21
7 24 16 3 8 10 13 15 9 5 -3 12 -1 16 4 3 6 11 9 18 7 7 -1 9 -1 4 1 -4 3 -4
9 -1 14 3 6 11 5 20 -2 12 -10 13 -9 8 5 -3 9 -10 16 -15 16 -5 0 -9 7 -9 15
0 8 5 15 11 15 5 0 7 -5 3 -12 -4 -6 -3 -8 4 -4 6 3 14 -3 17 -15 5 -15 10
-18 15 -9 4 6 9 11 11 10 9 -4 59 24 59 32 0 5 4 7 9 3 5 -3 12 -1 16 5 4 6
10 8 15 5 5 -3 7 4 5 15 -2 11 0 20 6 20 5 0 9 -7 9 -15 0 -12 3 -13 19 -3 11
7 17 17 14 22 -4 6 -8 5 -11 -3 -3 -9 -9 -8 -23 5 -18 16 -25 11 -20 -18 2
-16 -15 -7 -28 13 -11 19 -11 21 4 16 10 -4 14 -3 10 4 -4 6 -13 8 -21 5 -8
-3 -14 0 -14 6 0 7 -5 6 -15 -2 -8 -7 -15 -8 -15 -3 0 5 -7 10 -15 10 -11 0
-12 -4 -4 -13 13 -16 2 -37 -17 -30 -17 6 -17 2 -3 -27 10 -21 10 -21 -5 -3
-9 11 -16 24 -16 29 0 5 -7 4 -15 -3 -9 -7 -14 -19 -11 -27 4 -8 1 -11 -5 -8
-6 4 -8 13 -5 21 3 7 1 16 -3 19 -19 11 -20 -28 -1 -52 11 -14 17 -30 14 -35
-4 -6 -10 -5 -15 3 -4 7 -12 10 -16 5 -4 -5 -2 -11 5 -13 6 -3 9 -9 6 -15 -4
-6 -11 -3 -18 10 -10 18 -12 19 -26 4 -13 -14 -12 -15 4 -9 12 5 16 3 13 -5
-2 -7 -10 -12 -16 -10 -7 1 -10 -2 -6 -7 6 -11 -27 -7 -47 5 -7 5 -8 3 -3 -6
5 -9 4 -11 -4 -6 -6 4 -8 12 -5 18 4 7 2 8 -5 4 -6 -4 -9 -12 -6 -17 4 -5 2
-9 -3 -9 -5 0 -12 8 -14 18 -4 14 0 18 16 16 12 -1 23 -3 26 -4 3 -1 8 -2 13
-1 4 0 7 -4 7 -11 0 -21 15 3 15 25 1 12 6 21 12 20 6 -1 11 9 11 22 0 13 -3
24 -7 23 -19 -2 -31 4 -28 14 1 7 -4 12 -10 11 -7 -2 -13 2 -13 8 0 6 7 8 16
5 10 -4 14 -2 11 6 -2 7 -10 12 -16 10 -7 -1 -10 2 -7 7 4 5 3 11 -1 14 -5 2
-3 2 4 1 7 -2 15 1 18 6 4 6 -5 10 -19 10 -14 0 -26 4 -26 9 0 18 12 41 22 41
5 0 6 -4 3 -10 -4 -6 1 -7 11 -3 15 5 14 7 -2 16 -23 12 -34 28 -28 38 2 4
-14 18 -36 30 -22 13 -40 27 -40 33 0 5 -3 6 -6 3 -4 -4 -1 -13 6 -22 10 -12
10 -15 -4 -15 -9 0 -16 -4 -16 -10 0 -5 -5 -10 -11 -10 -5 0 -7 5 -3 12 4 7 3
8 -4 4 -17 -10 -15 -36 2 -36 8 0 18 -5 21 -11 4 -6 1 -9 -6 -8 -8 2 -24 -2
-37 -9 -12 -7 -28 -10 -34 -6 -7 4 -8 3 -4 -4 9 -14 49 -9 54 6 3 9 9 9 23 2
18 -10 23 -6 20 13 -1 5 4 5 10 1 8 -5 9 -3 4 6 -6 9 -4 11 5 5 9 -6 11 -4 5
6 -8 12 -6 12 8 1 9 -8 21 -11 27 -7 5 3 10 -1 10 -10 0 -13 -4 -14 -22 -4
-18 10 -20 9 -15 -4 4 -12 2 -14 -10 -10 -10 4 -14 2 -10 -4 5 -7 -2 -10 -18
-8 -14 1 -25 -2 -25 -6 0 -5 5 -9 11 -9 5 0 7 -5 3 -11 -5 -8 -9 -7 -15 3 -10
19 -75 16 -71 -2 3 -11 0 -11 -12 0 -9 7 -16 18 -15 24 0 7 2 6 6 -2 2 -6 9
-9 14 -6 6 3 5 12 -3 22 -8 10 -9 13 -1 9 6 -4 14 -3 18 3 3 5 1 10 -5 10 -7
0 -8 6 0 19 13 26 13 34 -2 25 -6 -4 -8 -3 -4 4 3 6 2 13 -4 17 -5 3 -10 1
-10 -4 0 -6 -7 -11 -16 -11 -10 0 -12 -5 -7 -12 12 -21 12 -35 -3 -35 -7 0
-11 4 -8 9 3 4 -1 8 -8 8 -11 0 -11 2 0 9 10 6 10 10 -2 21 -9 7 -13 17 -9 24
13 20 14 48 1 40 -7 -4 -8 -3 -4 5 4 6 11 9 15 6 12 -7 11 -55 -1 -55 -5 0 -7
-4 -3 -10 3 -5 11 -7 18 -4 18 6 16 56 -3 80 -14 18 -14 18 4 4 18 -14 19 -13
13 5 -6 17 -5 18 5 4 7 -9 20 -14 28 -12 13 4 13 3 0 -6 -8 -5 -12 -12 -10
-15 3 -2 14 2 24 10 11 8 14 14 7 14 -7 0 -9 5 -6 10 4 6 12 7 18 4 8 -4 7 -2
-1 7 -11 11 -14 12 -21 1 -6 -11 -14 -8 -35 13 -20 20 -24 30 -17 39 6 7 8 16
4 19 -3 4 -3 7 0 7 3 0 11 -9 17 -20 9 -17 8 -19 -7 -13 -14 4 -12 0 6 -18 16
-16 25 -20 28 -12 3 9 10 10 24 3 25 -14 24 -6 -3 25 -11 13 -26 21 -31 18 -6
-4 -8 0 -4 9 3 9 0 21 -6 28 -9 9 -6 9 10 -1 12 -7 21 -18 20 -23 -1 -6 8 -11
21 -10 16 0 21 -4 18 -13 -4 -8 -1 -11 5 -8 6 4 8 13 5 20 -2 7 2 16 10 19 16
6 14 40 -4 58 -13 13 -16 29 -4 26 4 -1 18 4 31 11 13 7 21 9 17 3 -3 -5 2
-16 12 -23 14 -11 15 -11 5 0 -6 7 -9 20 -6 28 4 9 0 14 -8 13 -28 -4 -39 0
-39 16 0 9 -5 12 -12 8 -7 -4 -10 -3 -5 1 11 12 50 17 42 6 -3 -5 0 -13 6 -17
7 -4 9 -3 6 3 -4 6 4 13 18 16 17 3 29 -1 35 -12 5 -9 9 -11 10 -6 0 21 -18
38 -31 29 -8 -4 -3 5 11 22 14 18 32 29 41 27 16 -4 35 24 24 35 -3 3 -5 0 -5
-7 0 -7 -5 -9 -10 -6 -8 5 -7 11 0 20 7 8 9 19 5 26 -5 7 -1 9 11 5 24 -7 52
29 29 38 -9 3 -12 0 -9 -8 3 -8 1 -17 -5 -21 -7 -4 -11 4 -11 20 0 15 -4 24
-10 20 -6 -4 -9 -14 -8 -22 3 -18 -33 -28 -43 -11 -4 7 -9 7 -13 -1 -4 -6 -2
-11 4 -11 6 0 8 -5 4 -11 -5 -8 -1 -8 13 0 20 10 33 6 33 -10 0 -5 -8 -6 -17
-3 -15 5 -16 4 -3 -5 8 -6 11 -11 6 -11 -5 0 -3 -7 4 -15 10 -12 6 -14 -24
-11 -34 4 -35 2 -29 -22 4 -18 3 -23 -6 -18 -6 4 -9 12 -6 17 3 5 -1 6 -11 2
-15 -5 -15 -7 0 -15 17 -9 13 -28 -5 -28 -6 0 -8 4 -4 9 3 5 1 12 -5 16 -5 3
-10 0 -10 -7 0 -8 -5 -6 -11 5 -7 13 -7 22 0 31 7 9 7 16 -2 25 -9 10 -8 11 6
6 19 -8 22 -21 7 -30 -5 -3 -10 -10 -10 -16 0 -5 9 -4 20 3 11 7 20 18 20 24
0 6 6 17 14 24 8 6 12 18 9 26 -4 12 -8 12 -20 -3 -13 -17 -13 -16 -4 4 9 18
7 25 -11 38 -21 15 -21 16 -3 13 12 -2 19 2 17 10 -1 6 3 12 9 12 6 0 9 -7 6
-15 -4 -8 -2 -17 4 -20 5 -4 12 1 15 9 8 20 -14 48 -30 39 -8 -4 -8 -3 0 6 18
20 56 -16 43 -41 -6 -12 -6 -18 0 -18 6 0 16 10 22 22 10 19 9 24 -10 36 -11
8 -21 21 -21 28 0 16 -16 19 -25 4 -3 -5 -13 -10 -22 -10 -14 0 -14 3 2 20 17
19 17 20 1 20 -9 0 -14 5 -11 10 5 8 11 7 21 -1 8 -7 14 -7 14 -1 0 5 -6 15
-14 22 -8 6 -12 18 -9 27 4 10 8 11 13 3 5 -8 11 -6 20 5 10 12 10 15 -3 15
-9 0 -19 4 -22 10 -3 5 2 9 12 7 10 -1 19 3 19 8 1 6 -2 9 -7 7 -12 -3 -12 -1
8 44 9 22 17 47 18 57 1 10 8 23 15 30 9 9 11 9 6 0 -3 -6 -2 -14 4 -18 5 -3
10 -11 10 -17 0 -6 -7 -5 -17 3 -16 13 -17 12 -5 -2 10 -14 10 -18 -1 -22 -36
-14 -24 -91 12 -79 9 3 11 0 6 -7 -4 -7 -13 -10 -21 -7 -7 3 -16 1 -19 -4 -4
-6 5 -10 18 -10 26 0 44 25 26 35 -5 4 -7 11 -4 16 4 5 -1 12 -9 15 -21 8 -20
30 2 39 31 14 52 12 53 -4 0 -10 2 -11 5 -4 3 7 1 20 -5 30 -6 10 -11 12 -11
6 0 -7 -5 -13 -11 -13 -7 0 -8 7 -4 18 12 30 10 35 -12 37 -13 1 -26 5 -30 10
-5 4 0 5 9 2 10 -3 17 -3 17 1 -3 18 2 26 10 14 6 -11 10 -10 19 1 9 11 8 13
-8 12 -11 -1 -23 -4 -26 -8 -13 -13 -27 -7 -15 6 6 8 7 18 3 22 -4 5 0 5 8 1
12 -5 11 -4 -1 5 -14 10 -13 14 8 37 18 19 20 28 12 39 -9 11 -8 12 5 7 14 -6
21 4 17 28 0 4 8 10 19 13 11 4 20 11 20 17 0 5 7 7 16 4 9 -4 13 -2 8 5 -4 7
-1 10 7 7 8 -3 13 -13 11 -23 -2 -9 1 -14 7 -11 5 4 9 15 8 26 -1 10 -4 17 -8
14 -4 -2 -10 2 -13 8 -5 10 -7 10 -12 1 -8 -18 -21 -16 -21 2 0 8 4 12 8 10
12 -8 30 22 23 39 -4 11 -1 16 10 16 9 0 16 -4 16 -10 0 -5 5 -10 12 -10 6 0
8 3 5 7 -4 3 -1 13 6 22 11 14 10 14 -5 2 -10 -7 -18 -9 -18 -4 0 16 36 44 45
36 4 -5 5 -3 2 4 -8 12 -24 12 -44 0 -8 -5 -13 -3 -13 3 0 6 10 15 23 20 l22
9 -22 0 c-12 1 -25 6 -28 11 -4 6 -11 8 -16 5 -5 -4 -9 1 -9 10 0 9 4 14 9 11
5 -3 11 1 15 9 3 8 0 17 -6 21 -7 4 -6 9 2 14 9 6 8 15 -4 37 -12 23 -12 33
-3 42 9 10 8 11 -4 6 -10 -4 -16 -16 -15 -30 0 -13 4 -21 7 -19 4 2 9 -3 13
-11 6 -18 -10 -30 -18 -13 -3 7 -4 4 -3 -6 1 -10 -3 -21 -9 -23 -7 -2 -10 10
-8 37 2 32 -1 42 -18 51 -15 8 -22 8 -28 -1 -6 -9 -9 -9 -12 1 -4 11 -11 9
-34 -5 -19 -13 -25 -14 -17 -4 15 18 7 29 -15 21 -14 -4 -15 -3 -2 5 9 7 18 8
26 1 8 -7 15 -6 19 1 4 6 13 9 21 6 9 -3 11 0 7 11 -4 10 -2 14 4 10 6 -4 16
0 23 8 9 10 9 15 1 15 -6 0 -11 -5 -11 -11 0 -5 -4 -8 -10 -4 -5 3 -8 11 -6
18 1 7 1 9 -1 5 -3 -5 -9 -8 -14 -8 -11 0 -7 23 6 32 6 5 5 8 -4 8 -10 0 -11
3 -2 14 9 10 9 16 1 21 -6 4 -14 4 -17 1 -4 -3 -1 -6 6 -6 7 0 9 -5 5 -11 -4
-8 -13 -4 -26 12 -10 13 -17 18 -16 10 5 -22 -16 -23 -30 -1 -14 23 -10 35 18
50 16 8 18 7 15 -9 -2 -11 3 -22 10 -25 10 -3 12 0 8 11 -4 11 -2 14 5 9 7 -4
12 -3 12 2 0 12 -28 25 -55 26 -31 1 -28 29 4 47 28 16 35 9 18 -18 -7 -10 19
-26 48 -28 6 0 8 -9 7 -20 -5 -27 8 -13 13 14 2 12 0 19 -4 16 -5 -2 -11 5
-14 16 -3 12 -10 18 -16 15 -5 -4 -12 -2 -16 4 -3 5 0 10 7 10 8 0 6 4 -4 11
-12 7 -24 6 -39 -1 -11 -6 -29 -13 -41 -15 -16 -3 -18 -2 -8 10 6 8 18 11 26
8 10 -4 12 0 8 11 -3 9 -11 13 -17 9 -6 -4 -7 -1 -2 7 6 10 11 9 21 -5 8 -10
17 -15 21 -12 4 4 2 12 -4 18 -8 8 -3 23 19 55 16 24 34 44 39 44 6 0 7 5 4
10 -3 6 1 13 9 16 9 3 13 10 10 16 -3 5 5 26 18 46 13 20 37 63 53 94 16 31
33 56 38 55 12 -2 97 141 97 161 0 8 15 38 33 68 28 46 36 53 63 54 20 0 34 6
38 16 7 19 -14 42 -33 36 -7 -2 3 24 23 60 20 36 36 74 36 85 0 11 7 26 15 33
17 14 12 61 -9 91 -12 18 -79 75 -115 99 -21 14 -22 18 -10 38 15 24 9 35 -15
26 -9 -4 -15 -13 -12 -20 6 -16 -5 -19 -19 -5 -17 16 -209 109 -238 115 -16 4
-97 37 -180 75 -159 71 -290 109 -406 116 l-62 4 -23 -52z m-461 -1200 c-17
-9 -20 -27 -4 -27 5 0 7 5 3 12 -4 7 -3 8 4 4 6 -4 9 -13 6 -21 -9 -23 -41 0
-38 27 1 13 3 26 3 31 1 4 10 2 21 -5 16 -11 17 -14 5 -21z m1035 -207 c-8 -5
-19 -10 -25 -10 -5 0 -3 5 5 10 8 5 20 10 25 10 6 0 3 -5 -5 -10z m110 -6 c0
-8 -6 -11 -15 -8 -8 4 -15 9 -15 13 0 4 7 8 15 8 8 0 15 -6 15 -13z m-96 -44
c-5 -5 -10 3 -11 18 -1 22 0 24 9 8 6 -10 6 -22 2 -26z m-149 -50 c-3 -5 -12
-10 -18 -10 -7 0 -6 4 3 10 19 12 23 12 15 0z m30 -9 c3 -5 2 -12 -3 -15 -5
-3 -9 1 -9 9 0 17 3 19 12 6z m143 -13 c8 -8 15 -8 25 1 18 14 36 -5 32 -32
-2 -10 3 -21 10 -23 11 -5 10 -9 -3 -24 -8 -11 -20 -16 -26 -12 -6 3 -20 7
-31 7 -11 0 -26 4 -33 8 -14 9 -7 27 11 27 8 0 8 -3 -2 -9 -7 -5 -9 -11 -5
-13 5 -3 22 3 37 12 l29 18 -23 16 c-21 14 -24 14 -32 1 -4 -8 -13 -15 -18
-15 -6 0 -3 7 5 16 20 20 20 28 0 20 -8 -3 -12 -2 -9 4 8 13 18 13 33 -2z
m-118 -18 c0 -5 -5 -10 -11 -10 -5 0 -7 5 -4 10 3 6 8 10 11 10 2 0 4 -4 4
-10z m140 -20 c0 -5 -4 -10 -10 -10 -5 0 -10 5 -10 10 0 6 5 10 10 10 6 0 10
-4 10 -10z m-1756 -76 c3 -8 13 -14 23 -15 14 0 12 -3 -6 -10 -19 -7 -21 -12
-11 -24 7 -8 8 -20 4 -27 -5 -7 -9 -16 -9 -20 0 -3 -3 -10 -7 -13 -4 -4 -5 4
-3 17 6 33 -23 33 -36 0 -5 -14 -12 -22 -15 -19 -3 3 -1 14 5 25 15 27 14 39
-1 24 -7 -7 -17 -12 -22 -12 -6 0 -4 5 4 10 10 6 11 10 3 10 -20 0 -15 17 15
48 28 29 46 32 56 6z m1706 20 c0 -8 -19 -13 -24 -6 -3 5 1 9 9 9 8 0 15 -2
15 -3z m125 -34 c6 5 16 5 25 -1 13 -8 13 -10 0 -19 -10 -7 -11 -10 -2 -10 8
0 11 -9 8 -24 -5 -30 18 -55 28 -31 3 9 10 14 16 10 5 -3 0 -15 -11 -26 -22
-22 -21 -29 8 -33 22 -3 24 -27 3 -34 -13 -5 -13 -3 0 14 14 17 14 18 -1 6
-14 -10 -18 -10 -24 5 -5 10 -9 24 -11 31 -4 19 -14 28 -14 12 0 -9 -7 -7 -22
6 -12 10 -18 13 -13 5 5 -10 4 -12 -4 -7 -6 4 -9 12 -6 17 4 5 2 9 -4 9 -22 0
-21 -21 3 -45 14 -14 21 -25 16 -25 -5 0 -8 -9 -7 -20 1 -11 5 -20 10 -20 5 0
7 7 4 15 -4 8 -2 17 2 20 10 6 20 -24 14 -42 -4 -10 -10 -10 -25 -2 -11 6 -18
7 -15 2 3 -5 -3 -10 -14 -10 -11 -1 -17 2 -14 7 3 5 -1 12 -8 17 -8 4 -19 17
-25 29 -9 16 -8 21 3 21 7 0 11 -6 9 -12 -3 -7 2 -17 9 -24 13 -10 14 -4 11
39 -3 46 -1 52 22 60 26 10 27 11 18 34 -3 9 -11 13 -18 9 -6 -4 -19 -9 -30
-10 -16 -3 -15 0 5 16 15 12 28 16 33 11 6 -6 14 -6 21 0z m-60 -50 c3 -6 -1
-7 -9 -4 -18 7 -21 14 -7 14 6 0 13 -4 16 -10z m-5 -45 c0 -1 -8 -5 -18 -7
-11 -3 -19 0 -19 7 0 7 8 10 19 7 10 -2 18 -6 18 -7z m-1882 -15 c-7 -10 -14
-17 -17 -15 -4 4 18 35 25 35 2 0 -1 -9 -8 -20z m96 -6 c5 -13 4 -14 -7 -6 -8
7 -18 8 -22 4 -5 -4 -5 -1 -1 6 10 17 23 15 30 -4z m1866 6 c3 -1 8 -2 12 -1
4 0 5 -6 2 -14 -4 -8 -1 -15 5 -15 6 0 11 -7 11 -15 0 -8 -4 -15 -10 -15 -5 0
-10 6 -10 14 0 8 -12 23 -27 35 -23 16 -24 19 -8 16 11 -2 22 -4 25 -5z
m-2017 -37 c-6 -14 7 -17 23 -5 5 4 1 0 -8 -10 -23 -21 -23 -29 0 -22 14 5 15
4 2 -5 -20 -14 -43 14 -31 38 5 9 6 23 4 31 -4 13 -3 13 5 1 6 -8 8 -20 5 -28z
m-23 17 c0 -5 -8 -10 -17 -10 -15 0 -16 2 -3 10 19 12 20 12 20 0z m170 -14
c0 -3 -4 -8 -10 -11 -5 -3 -10 -1 -10 4 0 6 5 11 10 11 6 0 10 -2 10 -4z m-65
-25 c3 -5 2 -12 -3 -15 -5 -3 -9 1 -9 9 0 17 3 19 12 6z m40 -1 c3 -6 -1 -7
-9 -4 -18 7 -21 14 -7 14 6 0 13 -4 16 -10z m1956 -11 c15 -8 25 -7 37 3 13 9
12 7 -2 -10 -18 -21 -43 -32 -32 -13 4 5 -4 7 -16 3 -16 -4 -19 -2 -13 8 5 9
4 11 -4 6 -6 -4 -8 -12 -5 -18 5 -7 2 -8 -6 -3 -8 5 -11 4 -6 -3 4 -6 14 -8
24 -5 9 3 14 3 10 -2 -4 -4 -3 -16 2 -25 7 -14 5 -19 -11 -23 -12 -3 -18 -10
-14 -16 3 -6 2 -11 -3 -11 -20 0 -20 14 1 32 l22 20 -24 -15 c-24 -16 -56 -12
-45 4 3 5 10 7 15 4 17 -11 30 5 19 25 -7 14 -6 23 6 34 18 19 20 19 45 5z
m-2192 -15 c5 3 7 -3 4 -13 -5 -21 -29 -35 -44 -25 -5 3 -5 13 1 23 5 10 6 22
2 27 -4 5 1 2 10 -5 9 -7 21 -10 27 -7z m231 2 c0 -2 -7 -7 -16 -10 -8 -3 -12
-2 -9 4 6 10 25 14 25 6z m1899 -28 c6 -10 7 -18 2 -18 -5 0 -11 5 -13 10 -2
6 -8 2 -15 -9 -10 -16 -7 -22 23 -43 30 -22 33 -27 19 -38 -12 -10 -20 -7 -43
18 -16 17 -29 25 -29 17 0 -8 7 -17 15 -20 11 -4 12 -8 2 -20 -9 -10 -9 -15
-1 -15 6 0 11 5 11 11 0 5 4 8 9 5 16 -10 5 -41 -13 -38 -18 3 -21 -9 -7 -23
6 -6 5 -17 -4 -28 -11 -16 -13 -13 -14 25 0 24 -3 58 -6 77 -3 20 0 40 8 49
10 13 9 15 -5 9 -10 -3 -18 -2 -18 3 0 6 7 10 15 10 8 0 15 5 15 10 0 6 -6 10
-14 10 -8 0 -17 4 -20 8 -2 4 12 8 33 8 27 0 42 -5 50 -18z m-2012 -10 c2 -17
0 -19 -7 -8 -5 8 -6 18 -4 22 8 12 10 10 11 -14z m93 2 c0 -5 -5 -10 -11 -10
-5 0 -7 5 -4 10 3 6 8 10 11 10 2 0 4 -4 4 -10z m-35 -100 c3 -5 1 -10 -4 -10
-6 0 -11 5 -11 10 0 6 2 10 4 10 3 0 8 -4 11 -10z m-62 -20 c-3 -12 -8 -19
-11 -16 -5 6 5 36 12 36 2 0 2 -9 -1 -20z m42 0 c3 -6 -1 -7 -9 -4 -18 7 -21
14 -7 14 6 0 13 -4 16 -10z m-2 -35 c-3 -9 -8 -14 -10 -11 -3 3 -2 9 2 15 9
16 15 13 8 -4z m-28 -12 c11 -25 12 -62 2 -56 -4 2 -7 14 -5 26 2 17 -2 21
-17 20 -11 -1 -14 0 -7 3 6 3 10 10 6 15 -3 5 -1 9 4 9 6 0 13 -8 17 -17z
m-15 -155 c0 -6 -6 -5 -15 2 -8 7 -15 14 -15 16 0 2 7 1 15 -2 8 -4 15 -11 15
-16z m1994 7 c-4 -8 -11 -12 -16 -9 -6 4 -5 10 3 15 19 12 19 11 13 -6z
m-2032 -97 c-7 -7 -12 -8 -12 -2 0 6 3 14 7 17 3 4 9 5 12 2 2 -3 -1 -11 -7
-17z m-76 -35 c-10 -10 -19 5 -10 18 6 11 8 11 12 0 2 -7 1 -15 -2 -18z m64 7
c0 -5 -4 -10 -10 -10 -5 0 -10 5 -10 10 0 6 5 10 10 10 6 0 10 -4 10 -10z
m-40 -215 c-7 -9 -15 -13 -19 -10 -3 3 1 10 9 15 21 14 24 12 10 -5z m1963
-40 c4 3 5 2 2 -2 -3 -4 -16 -8 -28 -10 -16 -2 -18 -1 -8 6 7 5 10 15 7 22 -4
8 -1 6 7 -3 8 -10 17 -16 20 -13z m-2014 -58 c13 4 14 3 1 -5 -10 -8 -18 -8
-27 0 -25 20 -23 2 1 -19 13 -12 26 -19 28 -17 3 2 5 -2 5 -10 0 -8 -3 -15 -6
-14 -19 2 -24 -4 -11 -12 9 -6 11 -10 3 -10 -7 0 -10 -7 -6 -17 3 -10 -5 -3
-18 14 -13 18 -33 33 -43 33 -11 0 -16 3 -12 8 11 10 30 9 38 -3 4 -5 6 0 5
12 -1 18 -4 20 -16 10 -8 -7 -16 -11 -18 -9 -11 8 -22 -1 -20 -17 1 -12 7 -17
22 -14 11 2 14 1 7 -3 -6 -3 -10 -10 -6 -15 9 -15 -13 -10 -26 6 -7 8 -9 15
-5 15 4 0 2 6 -4 14 -10 12 -6 19 22 38 20 13 32 29 29 37 -3 9 4 6 18 -7 12
-11 30 -18 39 -15z m1951 23 c0 -5 -5 -10 -11 -10 -5 0 -7 5 -4 10 3 6 8 10
11 10 2 0 4 -4 4 -10z m0 -30 c0 8 3 11 6 7 12 -12 -7 -28 -20 -18 -7 6 -17 7
-21 3 -5 -4 -5 -1 -1 6 6 10 11 10 22 1 11 -9 14 -9 14 1z m-1923 -16 c-3 -3
-12 -4 -19 -1 -8 3 -5 6 6 6 11 1 17 -2 13 -5z m1878 -44 c3 -5 1 -10 -4 -10
-6 0 -11 5 -11 10 0 6 2 10 4 10 3 0 8 -4 11 -10z m36 -43 c-10 -9 -11 -8 -5
6 3 10 9 15 12 12 3 -3 0 -11 -7 -18z m-3 -30 c9 3 14 3 11 -1 -4 -4 -19 -9
-33 -12 -23 -4 -25 -3 -14 10 7 8 14 10 16 6 2 -5 11 -6 20 -3z m-68 -7 c0 -5
-4 -10 -10 -10 -5 0 -10 5 -10 10 0 6 5 10 10 10 6 0 10 -4 10 -10z m-1954
-19 c0 -11 -5 -17 -13 -14 -17 6 -17 20 0 26 6 3 12 6 12 6 1 1 1 -7 1 -18z
m2038 -13 c-5 -7 -2 -9 7 -6 10 4 15 -1 16 -14 2 -16 -1 -17 -12 -8 -8 7 -20
10 -27 7 -8 -4 -7 -6 4 -6 23 -1 12 -31 -11 -31 -12 0 -13 2 -3 9 11 6 10 10
-5 15 -17 7 -17 8 0 17 9 6 15 14 12 20 -4 5 1 9 10 9 10 0 13 -5 9 -12z
m-133 -75 c13 -16 12 -17 -3 -4 -17 13 -22 21 -14 21 2 0 10 -8 17 -17z m27
-48 c-3 -3 -9 2 -12 12 -6 14 -5 15 5 6 7 -7 10 -15 7 -18z m-2031 -1 c-3 -3
-12 -4 -19 -1 -8 3 -5 6 6 6 11 1 17 -2 13 -5z m1993 -44 c0 -5 -5 -10 -11
-10 -5 0 -7 5 -4 10 3 6 8 10 11 10 2 0 4 -4 4 -10z m0 -44 c0 -2 -8 -10 -17
-17 -16 -13 -17 -12 -4 4 13 16 21 21 21 13z m-40 -36 c0 -5 -2 -10 -4 -10 -3
0 -8 5 -11 10 -3 6 -1 10 4 10 6 0 11 -4 11 -10z m274 -11 c20 3 26 0 20 -10
-5 -8 -9 -8 -14 1 -11 17 -16 17 -39 -4 -14 -13 -21 -15 -21 -6 0 18 33 41 41
28 3 -5 9 -9 13 -9z m-2253 -12 c-6 -8 -9 -16 -6 -19 3 -3 -6 -4 -19 -4 -14 1
-28 5 -32 9 -4 3 3 5 14 2 11 -2 26 3 33 11 6 8 14 14 16 14 3 0 0 -6 -6 -13z
m1989 -32 c0 -2 -6 -8 -13 -14 -10 -8 -14 -7 -14 2 0 8 6 14 14 14 7 0 13 -1
13 -2z m-1905 -37 c-1 -13 -3 -29 -4 -35 0 -7 -6 -13 -11 -13 -7 0 -7 6 0 19
13 26 13 34 -2 25 -9 -5 -9 -2 1 9 17 22 19 21 16 -5z m2145 -2 c0 -3 -4 -8
-10 -11 -5 -3 -10 -1 -10 4 0 6 5 11 10 11 6 0 10 -2 10 -4z m40 -5 c0 -5 -7
-12 -16 -15 -14 -5 -15 -4 -4 9 14 17 20 19 20 6z m-150 -55 c0 -3 -4 -8 -10
-11 -5 -3 -10 -1 -10 4 0 6 5 11 10 11 6 0 10 -2 10 -4z m120 -6 c0 -5 -4 -10
-10 -10 -5 0 -10 5 -10 10 0 6 5 10 10 10 6 0 10 -4 10 -10z m320 -43 c0 -6
-3 -7 -7 -4 -3 4 -15 0 -25 -10 -11 -10 -18 -12 -18 -4 0 6 6 14 13 17 21 8
16 33 -5 29 -20 -4 -25 11 -5 18 13 5 47 -28 47 -46z m-580 23 c0 -5 -2 -10
-4 -10 -3 0 -8 5 -11 10 -3 6 -1 10 4 10 6 0 11 -4 11 -10z m250 -5 c0 -2 -6
-5 -13 -8 -8 -3 -14 1 -14 8 0 7 6 11 14 8 7 -3 13 -6 13 -8z m54 3 c-3 -4 0
-8 7 -8 7 0 9 -3 6 -6 -4 -4 -13 -2 -21 5 -11 9 -15 8 -20 -5 -4 -9 -9 -15
-11 -12 -11 11 8 37 25 35 10 -1 16 -5 14 -9z m-2188 -7 c-6 -9 -46 -22 -46
-15 0 3 10 9 23 14 29 11 29 11 23 1z m2421 -5 c-2 -6 -13 -10 -23 -8 -15 2
-16 1 -5 -7 16 -10 8 -43 -10 -39 -16 4 -61 49 -55 55 3 3 14 -5 25 -18 11
-13 21 -21 22 -16 1 4 2 10 3 15 3 16 16 29 31 29 8 0 14 -5 12 -11z m-422
-27 c-3 -12 -7 -24 -10 -27 -3 -3 -3 5 -1 19 6 30 5 29 10 29 3 0 3 -10 1 -21z
m-135 2 c0 -6 -4 -12 -8 -15 -5 -3 -9 1 -9 9 0 8 4 15 9 15 4 0 8 -4 8 -9z
m322 -9 c-4 -11 -1 -13 9 -7 8 4 11 4 6 0 -4 -5 -16 -9 -27 -10 -14 -1 -17 2
-10 10 5 7 8 14 5 17 -3 2 1 5 9 5 8 0 12 -6 8 -15z m53 9 c3 -5 0 -13 -6 -17
-7 -4 -9 -3 -5 4 3 6 -2 13 -11 15 -16 4 -16 5 -1 6 9 0 19 -3 23 -8z m-118
-33 c2 -18 0 -20 -7 -8 -12 18 -13 30 -2 30 4 0 9 -10 9 -22z m-177 8 c0 -2
-8 -10 -17 -17 -16 -13 -17 -12 -4 4 13 16 21 21 21 13z m78 -10 c-7 -8 -15
-12 -17 -11 -5 6 10 25 20 25 5 0 4 -6 -3 -14z m66 -8 c-3 -4 -9 -8 -15 -8 -5
0 -9 4 -9 8 0 5 7 9 15 9 8 0 12 -4 9 -9z m136 2 c0 -5 -4 -10 -10 -10 -5 0
-10 5 -10 10 0 6 5 10 10 10 6 0 10 -4 10 -10z m-245 -10 c-3 -5 -12 -10 -18
-10 -7 0 -6 4 3 10 19 12 23 12 15 0z m51 -26 c-21 -20 -28 -17 -14 5 7 11 16
17 20 15 5 -3 2 -12 -6 -20z m25 -7 c-10 -9 -11 -8 -5 6 3 10 9 15 12 12 3 -3
0 -11 -7 -18z m89 5 c0 8 5 6 11 -5 7 -13 18 -16 42 -12 17 4 29 3 26 0 -4 -3
-16 -7 -28 -10 -11 -2 -27 -7 -34 -12 -6 -4 -22 -8 -35 -9 -21 -1 -22 1 -8 14
14 14 13 17 -2 29 -15 13 -14 13 6 3 17 -8 22 -8 22 2z m-363 -19 c-4 -3 -2
-11 3 -18 7 -8 5 -12 -4 -12 -8 0 -12 7 -11 16 5 22 4 21 12 21 3 0 3 -3 0 -7z
m43 -5 c0 -4 -4 -8 -9 -8 -6 0 -12 4 -15 8 -3 5 1 9 9 9 8 0 15 -4 15 -9z m53
-3 c-3 -9 -8 -14 -10 -11 -3 3 -2 9 2 15 9 16 15 13 8 -4z m92 5 c-3 -5 -12
-10 -18 -10 -7 0 -6 4 3 10 19 12 23 12 15 0z m22 -15 c-15 -16 -19 -13 -11 9
3 9 10 13 15 10 5 -3 3 -11 -4 -19z m93 21 c0 -3 -4 -8 -10 -11 -5 -3 -10 -1
-10 4 0 6 5 11 10 11 6 0 10 -2 10 -4z m-135 -34 c-3 -3 -11 0 -18 7 -9 10 -8
11 6 5 10 -3 15 -9 12 -12z m119 -4 c-3 -4 -9 -8 -15 -8 -5 0 -9 4 -9 8 0 5 7
9 15 9 8 0 12 -4 9 -9z m-139 -8 c3 -5 2 -10 -4 -10 -5 0 -13 5 -16 10 -3 6
-2 10 4 10 5 0 13 -4 16 -10z m-109 -20 c5 1 10 -4 12 -12 3 -11 2 -11 -6 0
-5 8 -13 13 -18 12 -5 -1 -10 4 -12 12 -3 11 -2 11 6 0 5 -8 13 -13 18 -12z
m144 16 c0 -2 -8 -10 -17 -17 -16 -13 -17 -12 -4 4 13 16 21 21 21 13z m68
-21 c-3 -3 -9 2 -12 12 -6 14 -5 15 5 6 7 -7 10 -15 7 -18z m-128 3 c0 -3 -9
-6 -20 -5 -11 1 -20 5 -20 9 0 3 9 6 20 5 11 -1 20 -5 20 -9z m-123 -15 c-4
-3 1 -12 11 -20 13 -10 14 -13 2 -11 -25 5 -36 38 -13 38 4 0 3 -3 0 -7z m154
-35 c-11 -11 -13 -10 -7 0 4 7 2 21 -5 30 -12 15 -11 15 6 0 16 -15 17 -20 6
-30z m-214 5 c0 -8 -4 -10 -12 -3 -7 5 -16 6 -20 2 -5 -4 -5 -2 -2 4 9 15 34
13 34 -3z m-1632 -41 c4 -10 0 -10 -18 -1 -21 12 -21 11 -7 -7 14 -17 14 -18
-2 -6 -9 7 -16 21 -15 31 1 15 4 17 19 8 10 -7 20 -17 23 -25z m1532 23 c0 -8
-4 -12 -9 -9 -5 3 -6 10 -3 15 9 13 12 11 12 -6z m-1589 -20 c-3 -3 -9 2 -12
12 -6 14 -5 15 5 6 7 -7 10 -15 7 -18z m1812 10 c0 -8 -4 -15 -10 -15 -5 0 -7
7 -4 15 4 8 8 15 10 15 2 0 4 -7 4 -15z m34 0 c3 -8 1 -15 -4 -15 -6 0 -10 7
-10 15 0 8 2 15 4 15 2 0 6 -7 10 -15z m-163 -27 c-10 -11 -11 -9 -5 6 6 15 4
17 -6 11 -9 -6 -11 -4 -5 4 5 9 10 10 18 2 8 -8 7 -14 -2 -23z m394 10 c5 4 6
0 3 -9 -4 -9 -1 -16 8 -16 7 0 10 5 7 11 -4 6 5 0 19 -14 18 -16 23 -28 17
-36 -5 -6 -5 -15 -1 -20 4 -4 0 -3 -10 4 -11 9 -18 10 -23 2 -4 -7 -12 -7 -24
0 -10 5 -20 7 -23 5 -3 -3 -4 15 -4 39 1 31 4 42 12 35 6 -5 15 -5 19 -1z
m-348 -13 c0 -8 -4 -12 -9 -9 -5 3 -6 10 -3 15 9 13 12 11 12 -6z m26 0 c-3
-9 -8 -14 -10 -11 -3 3 -2 9 2 15 9 16 15 13 8 -4z m-60 -20 c-3 -9 -8 -14
-10 -11 -3 3 -2 9 2 15 9 16 15 13 8 -4z m-39 -21 c3 -8 10 -13 15 -10 5 3 11
-1 15 -9 3 -8 0 -17 -6 -21 -7 -5 -8 -2 -3 6 6 10 4 12 -9 7 -10 -4 -20 -7
-22 -7 -3 0 -2 -5 2 -12 5 -7 3 -8 -6 -3 -10 6 -10 10 3 20 15 11 15 13 -1 28
-9 9 -11 17 -5 17 6 0 14 -7 17 -16z m59 3 c3 -8 -1 -14 -8 -14 -7 0 -11 6 -8
14 3 7 6 13 8 13 2 0 5 -6 8 -13z m-207 -19 c3 -4 -1 -5 -10 -4 -8 1 -18 5
-22 8 -3 4 1 5 10 4 8 -1 18 -5 22 -8z m89 2 c-3 -5 -12 -10 -18 -10 -7 0 -6
4 3 10 19 12 23 12 15 0z m341 -10 c8 0 14 -5 14 -11 0 -5 -5 -7 -12 -3 -6 4
-8 3 -4 -4 3 -6 2 -13 -4 -17 -5 -3 -10 -1 -10 6 0 20 -23 -6 -27 -30 -3 -25
34 -35 46 -13 8 13 10 9 9 -16 -1 -32 -10 -44 -37 -49 -8 -1 -17 -7 -22 -14
-9 -16 -37 -20 -45 -8 -8 14 14 38 37 38 10 1 28 1 39 2 11 0 20 5 20 11 0 6
-3 8 -7 5 -3 -4 -12 -2 -19 4 -9 7 -19 7 -32 0 -11 -6 -23 -7 -27 -3 -5 4 -5
2 -2 -4 4 -7 0 -17 -8 -24 -8 -7 -15 -8 -15 -3 0 15 31 54 39 48 5 -2 7 7 5
20 -1 14 2 25 7 25 6 0 7 6 3 13 -4 6 -4 9 1 5 11 -10 35 10 31 25 -1 7 -1 9
1 5 3 -5 11 -8 19 -8z m-371 -10 c3 -5 1 -10 -4 -10 -6 0 -11 5 -11 10 0 6 2
10 4 10 3 0 8 -4 11 -10z m149 -6 c3 -8 2 -13 -3 -10 -11 7 -23 -22 -14 -36 4
-7 1 -8 -8 -4 -8 4 -5 0 6 -9 20 -17 20 -17 -2 -11 -12 4 -24 2 -29 -5 -4 -8
-3 -9 4 -5 8 5 10 2 6 -8 -3 -9 -10 -16 -16 -16 -5 0 -7 4 -4 8 3 5 -1 9 -9 9
-8 0 -15 -3 -15 -6 0 -14 -61 -72 -69 -66 -5 3 -13 0 -17 -6 -4 -8 -3 -9 4 -5
7 4 12 5 12 2 0 -3 -10 -11 -22 -17 -22 -12 -22 -12 -5 12 32 45 38 59 27 59
-5 0 -10 7 -10 15 0 8 -5 15 -11 15 -5 0 -8 -4 -5 -8 2 -4 -5 -9 -17 -9 -17
-2 -18 0 -7 7 12 7 10 11 -10 19 -14 5 -18 10 -9 10 8 1 21 -5 28 -11 11 -11
13 -10 8 4 -3 10 -1 20 5 24 7 4 8 3 4 -4 -4 -7 -3 -12 2 -12 5 0 14 -11 20
-25 6 -14 17 -25 23 -25 8 0 7 6 -2 18 -12 15 -12 16 2 5 16 -13 29 -8 29 9 0
5 -5 6 -12 2 -7 -4 -8 -3 -4 5 4 6 11 9 16 6 5 -3 17 6 28 20 11 13 22 21 26
18 3 -3 6 -1 6 6 0 7 4 10 9 6 5 -3 12 4 16 15 8 24 11 25 19 4z m305 1 c12 2
19 0 16 -5 -3 -5 -1 -12 5 -15 6 -4 10 -3 9 2 -3 20 2 34 11 28 7 -4 7 -13 0
-26 -6 -10 -8 -19 -5 -19 3 0 1 -9 -5 -20 -6 -11 -15 -18 -20 -15 -5 3 -19 1
-29 -5 -17 -9 -23 -6 -38 16 -16 25 -17 25 -30 8 -7 -10 -13 -13 -13 -5 0 7
-4 10 -8 7 -5 -3 -9 2 -9 10 0 8 6 13 13 10 8 -3 22 5 31 18 13 17 22 22 34
15 9 -4 26 -6 38 -4z m-474 -14 c3 -5 2 -12 -3 -15 -5 -3 -9 1 -9 9 0 17 3 19
12 6z m95 -15 c0 -2 -8 -10 -17 -17 -16 -13 -17 -12 -4 4 13 16 21 21 21 13z
m89 -3 c-4 -22 2 -33 14 -27 9 6 9 5 -1 -8 -10 -12 -9 -18 3 -28 12 -10 15
-10 15 0 0 10 3 10 14 1 11 -9 15 -9 19 1 3 8 6 8 6 2 1 -6 -6 -17 -14 -24 -8
-7 -15 -8 -15 -3 0 5 -7 10 -15 10 -8 0 -12 -4 -9 -9 12 -19 12 -87 0 -97 -10
-9 -13 -5 -10 16 2 16 -6 43 -17 62 -15 26 -16 32 -5 28 9 -4 18 -1 22 5 5 7
2 8 -6 3 -9 -5 -11 -4 -6 3 4 7 3 12 -2 12 -12 0 -52 -39 -52 -50 0 -6 -5 -10
-11 -10 -5 0 -8 4 -4 9 9 15 -15 25 -28 12 -9 -9 -8 -11 4 -6 10 4 16 0 16
-10 0 -10 -6 -13 -18 -10 -9 3 -20 1 -24 -4 -4 -7 1 -8 12 -4 16 6 16 5 4 -11
-26 -31 -36 -1 -11 34 16 22 27 29 41 25 12 -4 21 -1 25 8 3 8 14 17 25 20 17
5 19 9 10 25 -10 19 -6 32 11 32 4 0 7 -3 7 -7z m-143 -19 c15 6 16 4 7 -5
-14 -14 -43 -5 -43 13 0 10 3 9 9 -1 6 -9 16 -11 27 -7z m-116 -4 c0 -5 -2
-10 -4 -10 -3 0 -8 5 -11 10 -3 6 -1 10 4 10 6 0 11 -4 11 -10z m-35 -62 c-1
-24 3 -37 9 -35 6 2 10 11 8 19 -3 19 28 32 42 18 6 -6 6 -10 0 -10 -20 0 -13
-36 8 -37 16 -2 17 1 7 13 -7 8 -8 14 -3 13 21 -4 28 2 14 11 -8 5 -10 10 -5
10 6 0 17 -4 25 -10 12 -8 12 -11 -2 -27 -9 -10 -18 -25 -20 -33 -4 -20 25
-19 40 3 10 13 17 15 27 7 13 -11 15 -63 2 -76 -4 -4 -2 -13 5 -21 6 -8 7 -13
2 -12 -25 4 -36 -2 -30 -18 5 -17 5 -17 -6 -1 -11 15 -14 15 -40 -3 -15 -11
-28 -16 -28 -10 0 6 6 11 13 11 6 0 4 5 -7 11 -26 16 -55 -13 -36 -35 8 -10 8
-16 2 -16 -14 0 -27 21 -27 44 0 11 -6 20 -13 22 -7 1 -8 0 -2 -3 12 -6 13
-23 1 -23 -13 0 -21 27 -15 45 4 8 10 15 16 15 5 0 6 -6 2 -12 -5 -8 0 -7 11
2 17 13 18 13 13 -1 -8 -20 6 -46 16 -30 4 6 2 11 -4 11 -6 0 -8 5 -5 11 5 7
14 4 28 -8 22 -18 22 -18 4 3 -16 19 -16 22 -2 28 9 3 14 2 11 -2 -2 -4 4 -19
15 -32 16 -21 18 -22 13 -5 -3 11 -2 16 3 10 4 -5 15 -11 23 -13 11 -2 11 1
-2 11 -23 18 -23 22 2 24 11 1 18 -2 15 -7 -3 -5 -1 -11 4 -15 10 -6 8 17 -5
49 -5 13 -4 17 4 12 6 -3 14 -1 18 5 4 8 3 9 -4 5 -7 -4 -12 -1 -12 6 0 8 -5
6 -11 -5 -5 -9 -7 -23 -4 -30 4 -6 -1 -3 -9 7 -12 15 -16 16 -16 5 0 -12 -2
-12 -10 1 -5 8 -10 10 -10 4 0 -7 -7 -15 -16 -18 -8 -3 -12 -2 -9 3 3 5 1 13
-5 16 -6 4 -10 3 -9 -2 3 -19 -2 -33 -12 -33 -5 0 -8 4 -4 9 3 5 0 13 -6 17
-8 5 -9 3 -4 -6 6 -9 4 -11 -5 -5 -9 6 -11 4 -5 -6 7 -11 6 -12 -6 -2 -13 11
-18 7 -34 -25 -10 -20 -19 -46 -20 -57 0 -11 -4 -26 -8 -32 -5 -7 -6 -17 -2
-22 3 -6 -4 -9 -15 -8 -22 1 -27 13 -8 19 6 2 12 19 13 37 1 18 7 36 14 41 9
5 10 9 2 14 -6 4 -9 11 -6 16 3 5 -4 7 -15 5 -14 -3 -18 0 -13 8 4 7 0 7 -10
-2 -9 -7 -14 -17 -11 -22 3 -5 -2 -6 -10 -3 -9 3 -14 10 -11 14 3 5 0 12 -6
16 -9 5 -10 0 -6 -16 4 -16 3 -20 -5 -12 -6 6 -8 18 -4 28 5 13 9 15 18 6 13
-13 32 -16 24 -4 -2 4 4 9 15 9 10 1 19 -2 19 -7 0 -11 19 -7 49 9 21 12 22
15 9 25 -8 6 -13 18 -10 26 4 13 3 13 -10 2 -11 -9 -18 -10 -23 -2 -8 12 -45
13 -45 1 0 -5 10 -11 23 -13 12 -2 21 -9 19 -16 -2 -10 4 -12 20 -7 20 5 21 4
5 -5 -19 -12 -41 -4 -32 11 4 5 -3 9 -15 9 -11 0 -23 7 -27 16 -4 11 -8 12
-13 4 -5 -8 -9 -7 -13 3 -4 11 0 15 14 12 10 -2 19 0 19 5 0 5 7 6 17 3 10 -4
14 -2 10 4 -7 11 18 36 46 46 10 4 16 10 13 15 -2 4 3 8 13 8 14 0 17 -8 16
-38z m27 20 c-7 -7 -12 -8 -12 -2 0 14 12 26 19 19 2 -3 -1 -11 -7 -17z m368
3 c0 -6 -5 -13 -10 -16 -6 -4 -4 -12 5 -21 8 -9 15 -19 15 -24 0 -15 -18 -21
-26 -9 -4 8 -3 9 4 5 8 -5 10 -1 5 9 -8 22 -23 -2 -15 -24 3 -10 -4 -8 -21 8
-26 23 -35 43 -19 39 15 -3 42 15 42 28 0 8 5 14 10 14 6 0 10 -4 10 -9z m80
5 c0 -2 -7 -7 -16 -10 -8 -3 -12 -2 -9 4 6 10 25 14 25 6z m-218 -62 c-12 -8
-22 -22 -22 -30 0 -8 -4 -12 -10 -9 -5 3 -10 13 -10 21 0 8 4 13 9 10 4 -3 13
6 20 21 9 20 15 23 24 14 8 -8 6 -15 -11 -27z m-1406 -19 c4 -8 9 -13 13 -11
14 9 32 -11 25 -27 -3 -9 -11 -14 -17 -10 -6 3 -7 1 -3 -5 4 -7 3 -12 -3 -12
-6 0 -15 9 -22 21 -10 19 -8 20 10 14 12 -4 21 -2 21 4 0 6 -3 10 -7 10 -20
-3 -34 2 -28 11 3 6 -1 7 -10 3 -12 -4 -13 -8 -5 -13 9 -5 9 -9 1 -14 -6 -4
-11 -1 -11 6 0 7 -8 0 -19 -17 -10 -16 -15 -32 -11 -35 4 -3 6 -15 5 -27 -1
-12 2 -20 7 -17 4 3 6 20 2 37 -4 25 -3 29 7 20 9 -9 16 -9 25 -2 10 8 12 5
11 -10 -1 -13 -6 -20 -14 -17 -20 8 -15 -11 5 -19 28 -13 46 -11 66 5 18 14
19 14 12 -5 -5 -15 -4 -17 5 -8 14 14 3 34 -14 27 -7 -2 -13 4 -14 16 -1 16 1
18 17 10 13 -7 19 -6 23 4 4 9 14 12 26 9 23 -6 25 -11 12 -32 -6 -10 -3 -20
12 -32 12 -10 17 -18 11 -19 -18 0 -47 38 -41 55 4 8 1 15 -4 15 -7 0 -9 -11
-7 -25 3 -14 0 -29 -6 -34 -14 -10 -86 -9 -105 3 -9 6 -12 5 -8 -1 4 -6 -4
-10 -19 -10 -16 0 -23 4 -20 12 3 8 -6 25 -20 40 -22 24 -22 26 -4 20 18 -6
21 -3 20 20 -1 8 53 54 63 55 4 0 10 -7 13 -15z m990 -32 c-3 -4 -6 -1 -6 5 0
7 -5 12 -10 12 -7 0 -7 -7 1 -21 6 -13 7 -19 1 -15 -6 3 -13 0 -16 -6 -3 -7
-3 -3 0 9 5 24 -6 25 -43 5 -16 -9 -24 -9 -29 0 -4 6 -3 8 3 5 6 -4 22 3 37
14 14 11 26 17 26 13 0 -5 5 -3 12 4 9 9 14 9 21 -4 5 -8 6 -18 3 -21z m359
18 c-3 -6 -11 -11 -17 -11 -6 0 -6 6 2 15 14 17 26 13 15 -4z m-325 -21 c0 -5
-4 -10 -10 -10 -5 0 -10 5 -10 10 0 6 5 10 10 10 6 0 10 -4 10 -10z m-1042
-12 c-2 -5 -8 -9 -13 -9 -5 0 -11 4 -13 9 -1 5 4 9 13 9 9 0 14 -4 13 -9z m92
2 c0 -5 -7 -10 -15 -10 -8 0 -15 5 -15 10 0 6 7 10 15 10 8 0 15 -4 15 -10z
m865 -10 c-3 -5 -12 -10 -18 -10 -7 0 -6 4 3 10 19 12 23 12 15 0z m322 -15
c4 -4 2 -5 -5 -1 -7 4 -15 1 -18 -8 -3 -9 -10 -14 -15 -11 -4 3 -6 12 -3 19 6
15 28 16 41 1z m78 5 c3 -5 1 -10 -4 -10 -6 0 -11 5 -11 10 0 6 2 10 4 10 3 0
8 -4 11 -10z m-1308 -28 c1 -11 -5 -18 -17 -18 -12 0 -18 7 -17 18 1 10 8 18
17 18 9 0 16 -8 17 -18z m987 -18 c20 -2 26 1 23 11 -3 7 0 12 8 11 22 -3 29
-14 18 -28 -5 -7 -8 -23 -7 -36 1 -12 -7 -29 -17 -36 -11 -7 -16 -16 -12 -19
3 -4 -1 -7 -10 -7 -10 0 -26 14 -37 32 -21 35 -20 45 4 31 14 -8 16 -12 16
-33 0 -6 8 -5 20 2 10 7 17 14 15 17 -3 2 0 10 7 18 8 11 7 12 -6 7 -11 -4
-16 -2 -14 6 2 7 -4 15 -12 17 -12 4 -12 3 -2 -5 11 -7 10 -10 -3 -16 -23 -8
-60 13 -47 26 6 6 8 18 5 27 -4 12 -2 11 9 -3 8 -10 27 -20 42 -22z m-587 -9
c-4 -8 -2 -17 3 -20 6 -4 10 1 10 9 0 9 5 16 11 16 6 0 9 -7 6 -14 -4 -10 -1
-13 8 -9 8 3 12 10 8 17 -4 6 1 5 10 -3 11 -9 17 -10 17 -2 0 8 8 6 23 -4 13
-8 26 -13 29 -10 2 3 5 -1 5 -9 0 -14 -49 -17 -62 -4 -4 3 -19 4 -34 2 -19 -3
-33 2 -47 17 -10 13 -13 19 -6 15 6 -4 12 -2 12 3 0 6 3 11 6 11 3 0 4 -7 1
-15z m282 -16 c-16 -10 -23 -4 -14 10 3 6 11 8 17 5 6 -4 5 -9 -3 -15z m311
-24 c0 -8 -4 -15 -8 -15 -5 0 -9 7 -9 15 0 8 4 15 9 15 4 0 8 -7 8 -15z"/>
<path d="M3496 3072 c-3 -5 1 -15 8 -21 11 -10 14 -9 12 3 -3 21 -13 29 -20
18z"/>
<path d="M3490 3015 l-25 -14 28 3 c15 1 28 6 28 10 1 14 -6 14 -31 1z"/>
<path d="M1693 2955 c-13 -6 -20 -15 -16 -18 3 -4 0 -7 -7 -7 -17 0 -4 -13 16
-16 10 -2 14 3 10 11 -3 8 0 17 6 21 6 4 8 3 4 -4 -3 -6 -2 -13 4 -17 6 -4 8
-10 6 -14 -3 -4 1 -8 9 -8 13 0 13 3 -1 18 -14 16 -14 18 2 21 14 2 15 5 3 14
-10 8 -20 7 -36 -1z"/>
<path d="M3559 2893 c-7 -10 -9 -15 -5 -11 5 4 14 0 21 -8 11 -15 12 -15 12 0
0 9 -5 16 -11 16 -6 0 -4 5 4 10 8 5 10 10 4 10 -6 0 -18 -8 -25 -17z"/>
<path d="M3525 2804 c0 -19 4 -33 9 -31 13 4 15 46 2 56 -8 6 -11 -1 -11 -25z"/>
<path d="M3534 2718 c0 -10 1 -18 3 -18 1 0 7 8 12 18 7 13 6 19 -2 19 -7 0
-13 -9 -13 -19z"/>
<path d="M3542 2674 c10 -10 20 -16 22 -13 3 3 -5 11 -17 18 -21 13 -21 12 -5
-5z"/>
<path d="M3575 2640 c3 -5 8 -10 11 -10 2 0 4 5 4 10 0 6 -5 10 -11 10 -5 0
-7 -4 -4 -10z"/>
<path d="M1385 1915 c0 -13 3 -26 8 -29 4 -3 5 -3 2 1 -3 3 0 12 5 18 7 9 6
16 -3 23 -10 9 -13 6 -12 -13z"/>
<path d="M3441 1216 c-10 -11 -9 -14 1 -12 14 2 23 15 15 22 -2 2 -10 -2 -16
-10z"/>
<path d="M3406 1021 c-3 -5 0 -14 8 -20 10 -9 15 -8 19 4 4 9 13 12 24 8 10
-3 15 -3 12 1 -11 11 -57 17 -63 7z"/>
<path d="M3196 842 c-3 -5 1 -9 9 -9 8 0 15 4 15 9 0 4 -4 8 -9 8 -6 0 -12 -4
-15 -8z"/>
<path d="M2983 916 c-23 -20 -25 -24 -9 -22 11 1 26 12 34 24 19 29 10 28 -25
-2z"/>
<path d="M2927 855 c-29 -28 -34 -37 -14 -29 11 4 52 54 45 54 -2 0 -16 -11
-31 -25z"/>
<path d="M3296 962 c-11 -11 -6 -21 14 -27 11 -3 20 -11 20 -16 0 -6 -5 -7
-12 -3 -7 4 -8 3 -4 -4 4 -6 13 -9 21 -6 8 4 12 10 9 15 -8 13 10 11 25 -3 9
-9 12 -9 7 -1 -3 6 -3 13 2 15 4 1 0 11 -10 21 -10 9 -18 12 -18 6 0 -6 -5 -7
-12 -2 -17 10 -35 12 -42 5z m42 -21 c3 -10 0 -10 -17 -2 -25 14 -27 20 -4 17
9 -2 19 -8 21 -15z"/>
<path d="M2746 871 c-7 -11 3 -41 13 -41 10 0 11 39 1 45 -5 3 -11 1 -14 -4z"/>
<path d="M2701 847 c-8 -10 -7 -18 3 -32 9 -12 15 -15 20 -7 11 19 26 14 26
-7 0 -11 5 -23 10 -26 6 -4 7 -12 3 -18 -5 -9 -3 -9 8 0 12 10 18 10 29 0 9
-8 11 -9 6 0 -8 14 10 27 19 13 9 -15 24 -3 21 18 -2 9 -9 17 -17 17 -9 0 -14
10 -13 27 1 15 -3 25 -8 22 -4 -3 -6 -9 -3 -14 3 -4 -2 -13 -9 -20 -17 -13
-50 0 -60 25 -7 19 -20 19 -35 2z m19 -7 c-12 -8 -12 -10 -1 -10 8 0 12 -3 8
-6 -9 -9 -28 6 -22 17 4 5 12 9 18 9 7 0 6 -4 -3 -10z m70 -40 c13 7 21 7 25
0 4 -6 10 -8 14 -6 4 3 8 -1 8 -9 0 -10 -4 -12 -12 -5 -7 6 -16 5 -25 -3 -10
-9 -11 -9 -5 1 5 9 2 12 -10 10 -10 -2 -19 3 -21 10 -1 7 0 8 3 2 3 -6 11 -7
23 0z"/>
<path d="M2720 725 c-7 -9 -8 -15 -2 -15 5 0 12 7 16 15 3 8 4 15 2 15 -2 0
-9 -7 -16 -15z"/>
<path d="M3125 839 c-4 -6 -5 -12 -2 -15 2 -3 7 2 10 11 7 17 1 20 -8 4z"/>
<path d="M2590 686 c0 -2 7 -6 15 -10 8 -3 15 -1 15 4 0 6 -7 10 -15 10 -8 0
-15 -2 -15 -4z"/>
<path d="M2130 659 c0 -5 5 -7 10 -4 6 3 10 8 10 11 0 2 -4 4 -10 4 -5 0 -10
-5 -10 -11z"/>
<path d="M3492 4590 c0 -14 2 -19 5 -12 2 6 2 18 0 25 -3 6 -5 1 -5 -13z"/>
<path d="M3696 4575 c-8 -8 -22 -12 -30 -9 -9 3 -16 1 -16 -5 0 -6 5 -11 10
-11 6 0 10 -7 10 -15 0 -21 16 -19 42 7 14 14 18 23 10 26 -7 2 -10 8 -6 13 8
14 -3 11 -20 -6z"/>
<path d="M1926 4331 c-5 -7 -3 -18 3 -24 14 -14 20 -6 11 17 -5 15 -9 16 -14
7z"/>
<path d="M4089 3998 c7 -9 9 -23 5 -30 -6 -10 -4 -11 7 0 11 10 10 15 -6 30
-17 15 -18 15 -6 0z"/>
<path d="M4360 3988 c0 -5 -4 -7 -9 -3 -6 3 -15 -3 -20 -14 -9 -16 -7 -20 15
-25 15 -4 29 -4 33 -1 11 12 7 52 -6 52 -7 0 -13 -4 -13 -9z"/>
<path d="M2185 3970 c4 -6 -1 -7 -11 -3 -14 5 -16 3 -11 -11 4 -10 7 -22 7
-27 0 -6 5 -7 10 -4 6 4 8 11 5 16 -4 5 -1 9 4 9 6 0 11 7 11 15 0 8 -5 15
-11 15 -5 0 -7 -4 -4 -10z"/>
<path d="M4140 3960 c0 -5 -9 -10 -19 -10 -11 0 -23 -5 -27 -12 -5 -8 -2 -9 9
-5 9 3 19 3 21 -2 3 -4 19 -6 36 -3 39 6 44 42 5 42 -14 0 -25 -4 -25 -10z"/>
<path d="M1795 3909 c-7 -10 24 -53 32 -45 2 2 1 15 -3 30 -6 27 -18 33 -29
15z"/>
<path d="M4282 3892 c1 -4 -3 -17 -10 -29 -8 -14 -9 -24 -2 -28 6 -4 8 -10 5
-14 -6 -11 57 -3 68 8 12 12 0 44 -13 36 -6 -3 -13 0 -16 9 -6 14 -36 32 -32
18z"/>
<path d="M2080 3865 c-10 -12 -10 -15 2 -15 8 0 15 7 15 15 0 8 -1 15 -2 15
-2 0 -8 -7 -15 -15z"/>
<path d="M4226 3802 c-3 -5 1 -9 9 -9 8 0 12 4 9 9 -3 4 -7 8 -9 8 -2 0 -6 -4
-9 -8z"/>
<path d="M1287 3784 c-8 -8 1 -24 14 -24 5 0 9 7 9 15 0 15 -12 20 -23 9z"/>
<path d="M3800 3770 c-7 -4 -10 -15 -7 -24 8 -19 43 -21 50 -3 6 17 -26 38
-43 27z"/>
<path d="M2279 3713 c-13 -16 -12 -17 4 -4 9 7 17 15 17 17 0 8 -8 3 -21 -13z"/>
<path d="M2126 3704 c-5 -12 -2 -15 10 -10 8 3 18 6 20 6 3 0 2 5 -1 10 -9 15
-22 12 -29 -6z"/>
<path d="M2170 3639 c0 -5 5 -7 10 -4 6 3 10 8 10 11 0 2 -4 4 -10 4 -5 0 -10
-5 -10 -11z"/>
<path d="M942 3628 c5 -15 28 -18 29 -3 0 6 -7 12 -17 13 -10 3 -15 -1 -12
-10z"/>
<path d="M4036 3622 c-4 -4 -12 -7 -18 -7 -14 0 -34 -32 -25 -41 14 -14 54
-11 64 5 12 19 -8 57 -21 43z"/>
<path d="M4219 3569 c-9 -17 -8 -20 3 -13 19 12 38 14 38 3 0 -6 4 -8 10 -4
15 9 0 35 -21 35 -10 0 -23 -10 -30 -21z"/>
<path d="M2495 3570 c-4 -6 -11 -7 -17 -4 -7 4 -8 2 -4 -5 6 -9 11 -9 22 0 14
11 18 19 10 19 -3 0 -8 -5 -11 -10z"/>
<path d="M3694 3565 c-3 -8 -3 -19 1 -25 9 -14 35 6 35 26 0 19 -29 18 -36 -1z"/>
<path d="M4145 3560 c-3 -5 1 -10 9 -10 9 0 16 5 16 10 0 6 -4 10 -9 10 -6 0
-13 -4 -16 -10z"/>
<path d="M1859 3558 c-6 -13 -5 -48 1 -48 12 0 19 39 9 46 -5 3 -10 4 -10 2z"/>
<path d="M3935 3550 c-3 -5 -1 -10 4 -10 6 0 11 5 11 10 0 6 -2 10 -4 10 -3 0
-8 -4 -11 -10z"/>
<path d="M2430 3546 c0 -2 7 -7 16 -10 8 -3 12 -2 9 4 -6 10 -25 14 -25 6z"/>
<path d="M2485 3540 c-16 -7 -17 -9 -3 -9 9 -1 20 4 23 9 7 11 7 11 -20 0z"/>
<path d="M2505 3514 c-13 -21 -19 -23 -31 -13 -12 10 -13 9 -8 -5 4 -12 13
-15 28 -10 19 6 19 5 7 -10 -8 -9 -16 -14 -19 -11 -3 3 -12 -1 -20 -8 -13 -10
-14 -8 -7 13 7 23 7 23 -10 6 -15 -15 -16 -19 -4 -27 8 -5 10 -9 5 -9 -5 0 -3
-6 3 -13 13 -16 47 -15 63 1 7 7 8 12 4 12 -5 0 -3 7 4 15 7 8 8 15 3 15 -5 0
-9 9 -10 20 -1 11 1 18 5 16 4 -3 8 4 8 15 0 24 0 24 -21 -7z m1 -72 c-2 -14
-21 -19 -52 -13 -14 2 16 27 34 28 13 1 19 -4 18 -15z"/>
<path d="M1248 3513 c-6 -7 -7 -13 -2 -14 5 0 20 -3 34 -5 19 -3 26 0 27 14 2
22 -42 25 -59 5z"/>
<path d="M2025 3520 c-3 -6 1 -7 9 -4 18 7 21 14 7 14 -6 0 -13 -4 -16 -10z"/>
<path d="M2147 3511 c2 -2 -5 -10 -15 -17 -16 -12 -15 -13 8 -22 14 -5 26 -6
28 -1 2 5 10 9 17 9 8 0 17 5 21 11 4 8 -1 9 -15 4 -14 -4 -27 -2 -34 7 -7 7
-11 11 -10 9z"/>
<path d="M1991 3500 c-9 -5 -4 -7 13 -7 29 0 32 2 13 10 -8 3 -20 2 -26 -3z"/>
<path d="M4225 3500 c-3 -6 1 -7 9 -4 18 7 21 14 7 14 -6 0 -13 -4 -16 -10z"/>
<path d="M2392 3487 c-8 -10 -6 -13 8 -14 11 -1 22 2 25 8 4 5 -2 6 -11 2 -12
-4 -15 -3 -10 5 10 16 1 15 -12 -1z"/>
<path d="M3717 3489 c7 -7 15 -10 18 -7 3 3 -2 9 -12 12 -14 6 -15 5 -6 -5z"/>
<path d="M1972 3474 c10 -10 20 -16 22 -13 3 3 -5 11 -17 18 -21 13 -21 12 -5
-5z"/>
<path d="M1914 3469 c-4 -7 -3 -9 4 -5 6 3 13 2 17 -4 4 -6 11 -8 16 -5 5 4 9
2 9 -4 0 -5 -5 -11 -10 -13 -6 -2 -1 -9 11 -16 17 -11 20 -11 13 0 -5 7 -9 20
-9 28 0 8 -4 15 -10 15 -5 0 -15 4 -22 8 -6 4 -15 2 -19 -4z"/>
<path d="M1830 3439 c0 -5 5 -7 10 -4 6 3 10 8 10 11 0 2 -4 4 -10 4 -5 0 -10
-5 -10 -11z"/>
<path d="M1916 3428 c3 -13 3 -20 -1 -16 -4 3 -15 -1 -26 -10 -14 -12 -15 -18
-6 -24 18 -12 24 -10 32 10 12 28 14 62 3 62 -5 0 -6 -10 -2 -22z"/>
<path d="M2285 3411 c1 -10 13 -16 33 -17 23 -1 29 2 24 14 -4 11 -7 12 -10 4
-2 -7 -8 -12 -14 -12 -6 0 -8 6 -5 13 3 7 -3 13 -13 13 -10 0 -17 -7 -15 -15z"/>
<path d="M3593 3422 c-9 -5 -6 -12 10 -21 19 -13 21 -12 10 1 -7 8 -10 18 -6
21 9 9 1 8 -14 -1z"/>
<path d="M3655 3420 c-3 -5 -1 -10 4 -10 6 0 11 5 11 10 0 6 -2 10 -4 10 -3 0
-8 -4 -11 -10z"/>
<path d="M992 3411 c4 -13 18 -16 19 -4 0 4 -5 9 -11 12 -7 2 -11 -2 -8 -8z"/>
<path d="M1773 3405 c0 -8 4 -12 9 -9 5 3 6 10 3 15 -9 13 -12 11 -12 -6z"/>
<path d="M2246 3398 c3 -4 9 -8 15 -8 5 0 9 4 9 8 0 5 -7 9 -15 9 -8 0 -12 -4
-9 -9z"/>
<path d="M1736 3391 c-4 -7 -5 -15 -2 -18 9 -9 19 4 14 18 -4 11 -6 11 -12 0z"/>
<path d="M1935 3390 c-8 -13 9 -20 24 -11 10 6 9 10 -3 14 -8 3 -18 2 -21 -3z"/>
<path d="M3655 3381 c-3 -5 -2 -12 3 -15 5 -3 9 1 9 9 0 17 -3 19 -12 6z"/>
<path d="M3621 3358 c-12 -19 -14 -20 -23 -5 -10 19 -28 23 -28 6 0 -5 5 -7
10 -4 6 3 10 1 10 -6 0 -6 -8 -9 -20 -6 -12 3 -18 1 -14 -5 4 -6 1 -8 -7 -6
-8 3 -13 11 -11 17 1 7 -2 9 -8 6 -6 -4 -9 -9 -6 -12 3 -3 -6 -17 -20 -31
l-24 -27 20 -20 c18 -17 22 -18 30 -5 5 8 7 24 3 35 -5 18 -4 19 13 5 18 -14
18 -14 4 4 -14 18 -13 19 3 13 10 -4 16 -3 12 2 -3 6 8 9 25 9 19 -1 29 -6 27
-12 -8 -19 30 -16 48 4 12 14 13 20 4 26 -8 4 -10 3 -5 -4 4 -7 5 -12 2 -12
-3 0 -11 11 -18 25 l-13 25 -14 -22z m-90 -42 c-6 -7 -9 -20 -5 -29 3 -8 1
-18 -5 -22 -20 -12 -24 25 -6 45 20 22 34 27 16 6z"/>
<path d="M1187 3356 c-4 -10 -1 -13 8 -9 8 3 12 9 9 14 -7 12 -11 11 -17 -5z"/>
<path d="M1909 3351 c-13 -15 -13 -19 -1 -30 7 -7 16 -10 20 -6 3 3 0 10 -8
15 -13 9 -7 14 12 11 4 0 5 6 2 14 -4 8 -7 15 -8 14 0 0 -8 -8 -17 -18z"/>
<path d="M1746 3337 c3 -10 9 -15 12 -12 3 3 0 11 -7 18 -10 9 -11 8 -5 -6z"/>
<path d="M2147 3333 c3 -7 8 -13 12 -13 4 0 8 6 8 13 0 8 -6 14 -13 14 -7 0
-10 -6 -7 -14z"/>
<path d="M4107 3339 c7 -7 15 -10 18 -7 3 3 -2 9 -12 12 -14 6 -15 5 -6 -5z"/>
<path d="M1586 3324 c-18 -17 -21 -28 -6 -19 6 3 10 -2 10 -12 1 -14 5 -13 21
10 12 15 26 24 32 20 7 -3 9 -2 4 2 -14 16 -46 15 -61 -1z"/>
<path d="M4227 3325 c-5 -10 0 -15 14 -15 12 0 19 5 17 12 -6 18 -25 20 -31 3z"/>
<path d="M1835 3320 c-3 -5 -1 -10 4 -10 6 0 11 5 11 10 0 6 -2 10 -4 10 -3 0
-8 -4 -11 -10z"/>
<path d="M1880 3316 c13 -17 13 -19 0 -14 -9 3 -22 -6 -32 -24 -10 -15 -22
-28 -28 -28 -5 0 -7 -7 -3 -16 5 -14 3 -15 -17 -4 -12 7 -20 7 -16 2 3 -6 3
-12 -1 -15 -5 -2 -3 -2 4 -1 7 2 15 0 17 -5 5 -7 -1 -9 -44 -13 -10 -1 -17 -4
-15 -7 3 -2 -1 -11 -8 -20 -11 -14 -10 -14 6 -2 9 8 20 11 23 8 4 -3 -8 -15
-26 -25 -17 -11 -31 -23 -30 -27 1 -4 -2 -10 -6 -13 -4 -4 -4 -1 0 6 12 20 -1
14 -28 -13 -16 -16 -23 -31 -19 -43 5 -14 3 -15 -7 -5 -10 9 -17 10 -27 2 -18
-15 -17 -36 2 -36 8 0 15 6 15 13 0 8 6 11 14 8 8 -3 16 3 19 16 3 13 10 19
17 15 6 -3 9 -3 8 2 -4 10 84 99 94 96 4 -2 4 5 1 14 -4 9 -2 14 3 11 10 -7
38 11 45 27 2 6 8 9 13 7 5 -2 4 3 -2 11 -12 14 -7 27 10 27 5 0 6 -6 2 -12
-4 -8 -3 -10 2 -5 5 5 10 13 10 18 3 22 5 23 14 9 8 -12 9 -10 7 8 -2 12 -10
28 -17 35 -11 9 -11 7 0 -7z m-180 -209 c0 -2 -10 -12 -22 -23 l-23 -19 19 23
c18 21 26 27 26 19z"/>
<path d="M1775 3311 c-3 -5 -2 -12 3 -15 5 -3 9 1 9 9 0 17 -3 19 -12 6z"/>
<path d="M1048 3302 c-14 -6 -13 -12 14 -42 16 -19 27 -30 24 -23 -3 6 -1 13
4 15 6 2 2 13 -9 25 -11 11 -17 24 -14 27 8 7 3 7 -19 -2z"/>
<path d="M2065 3300 c-3 -6 1 -7 9 -4 18 7 21 14 7 14 -6 0 -13 -4 -16 -10z"/>
<path d="M3575 3300 c-3 -6 1 -7 9 -4 18 7 21 14 7 14 -6 0 -13 -4 -16 -10z"/>
<path d="M3656 3303 c-10 -10 -7 -25 3 -19 5 4 11 2 13 -4 1 -5 8 -6 15 -2 9
6 7 11 -6 19 -11 7 -22 9 -25 6z"/>
<path d="M1370 3292 c0 -5 -11 -7 -25 -4 -15 2 -25 0 -25 -7 0 -13 39 -14 59
-2 9 6 10 11 2 15 -6 4 -11 3 -11 -2z"/>
<path d="M3630 3281 c0 -6 4 -13 10 -16 6 -3 7 1 4 9 -7 18 -14 21 -14 7z"/>
<path d="M1770 3260 c0 -5 5 -10 11 -10 5 0 7 5 4 10 -3 6 -8 10 -11 10 -2 0
-4 -4 -4 -10z"/>
<path d="M4223 3263 c-7 -3 -13 -11 -13 -20 0 -17 41 -14 47 3 4 13 -16 23
-34 17z"/>
<path d="M4390 3262 c0 -7 -3 -11 -7 -10 -17 4 -54 -14 -50 -25 5 -15 52 -16
52 -2 0 6 4 16 9 23 4 7 5 16 2 19 -3 4 -6 1 -6 -5z"/>
<path d="M1945 3239 c-3 -4 2 -6 10 -5 21 3 28 13 10 13 -9 0 -18 -4 -20 -8z"/>
<path d="M4165 3230 c5 -9 2 -10 -13 -6 -23 8 -33 -9 -22 -38 6 -19 7 -19 28
2 25 25 27 37 10 48 -7 5 -8 3 -3 -6z"/>
<path d="M1893 3218 c1 -7 -5 -11 -13 -10 -8 2 -12 0 -8 -4 4 -4 2 -14 -4 -23
-7 -9 0 -5 14 8 15 13 25 28 22 32 -8 13 -14 11 -11 -3z"/>
<path d="M1936 3208 c3 -5 10 -6 15 -3 13 9 11 12 -6 12 -8 0 -12 -4 -9 -9z"/>
<path d="M3478 3209 c-22 -12 -23 -26 -3 -26 8 0 13 3 10 5 -3 3 0 11 6 19 13
15 10 16 -13 2z"/>
<path d="M1836 3187 c3 -10 9 -15 12 -12 3 3 0 11 -7 18 -10 9 -11 8 -5 -6z"/>
<path d="M1810 3162 c-13 -14 -12 -15 3 -9 10 4 20 0 26 -11 6 -9 10 -12 10
-7 0 6 -5 17 -12 26 -11 15 -14 15 -27 1z"/>
<path d="M1870 3160 c-13 -8 -12 -10 3 -10 9 0 17 5 17 10 0 12 -1 12 -20 0z"/>
<path d="M3575 3151 c-3 -5 -2 -12 3 -15 5 -3 9 1 9 9 0 17 -3 19 -12 6z"/>
<path d="M1787 3139 c7 -7 15 -10 18 -7 3 3 -2 9 -12 12 -14 6 -15 5 -6 -5z"/>
<path d="M3464 3139 c-3 -6 0 -17 8 -25 13 -13 15 -13 15 1 0 8 -5 15 -11 15
-6 0 -4 5 4 10 9 6 10 10 3 10 -6 0 -15 -5 -19 -11z"/>
<path d="M3933 3123 c0 -16 2 -22 4 -15 3 6 9 10 13 7 5 -3 12 -1 15 5 4 6 1
9 -7 8 -7 -2 -12 3 -10 10 1 6 -2 12 -7 12 -5 0 -8 -12 -8 -27z"/>
<path d="M1455 3130 c-3 -5 -4 -10 -1 -10 2 0 11 -3 20 -6 11 -4 16 -1 16 10
0 18 -25 22 -35 6z"/>
<path d="M3552 3112 c14 -10 24 -25 22 -35 -2 -15 0 -16 12 -6 10 8 11 15 4
24 -5 6 -7 15 -3 19 4 4 -1 4 -11 0 -12 -4 -17 -4 -13 2 3 6 -4 11 -16 11 -19
2 -19 1 5 -15z"/>
<path d="M3886 3085 c-11 -8 -15 -15 -9 -15 6 0 16 7 23 15 16 19 11 19 -14 0z"/>
<path d="M4090 3071 c0 -7 -5 -9 -12 -5 -7 5 -8 3 -3 -5 5 -9 10 -10 18 -2 6
6 8 14 4 18 -4 3 -7 1 -7 -6z"/>
<path d="M3840 3066 c0 -2 7 -9 15 -16 13 -11 14 -10 9 4 -5 14 -24 23 -24 12z"/>
<path d="M3791 3046 c-9 -11 -8 -15 3 -19 11 -4 13 -1 9 11 -6 14 -4 15 9 4
13 -11 18 -11 24 0 4 7 4 10 -1 6 -4 -4 -14 -3 -20 2 -9 7 -16 6 -24 -4z"/>
<path d="M1560 3046 c0 -2 8 -10 18 -17 15 -13 16 -12 3 4 -13 16 -21 21 -21
13z"/>
<path d="M4270 3030 c8 -5 11 -10 6 -10 -5 0 -3 -6 3 -14 12 -15 35 -16 48 -2
11 10 -26 36 -51 36 -17 0 -18 -2 -6 -10z"/>
<path d="M3745 3005 c11 -16 20 -31 20 -32 1 -2 2 12 2 30 0 17 -2 26 -5 19
-3 -10 -7 -10 -20 0 -12 10 -11 6 3 -17z"/>
<path d="M1607 2998 c-11 -12 -26 -17 -42 -14 -24 5 -25 4 -10 -17 20 -28 19
-36 -2 -32 -10 2 -20 4 -23 4 -3 1 0 5 6 9 9 5 8 11 -3 21 -12 11 -14 10 -11
-5 2 -14 -3 -19 -20 -18 -16 1 -20 -2 -14 -8 6 -6 8 -18 5 -27 -4 -11 -1 -10
11 4 17 20 17 20 11 -2 -5 -19 -3 -22 12 -16 16 6 16 5 4 -10 -9 -11 -10 -17
-2 -17 6 0 11 5 11 10 0 6 5 10 11 10 5 0 8 -4 5 -9 -3 -5 1 -12 9 -15 12 -4
13 -2 6 13 -6 10 -17 21 -26 25 -8 3 -15 11 -15 18 0 8 3 9 8 3 4 -6 21 -11
39 -11 24 0 30 3 22 13 -6 7 -7 18 -3 24 4 7 3 9 -4 5 -6 -3 -14 -1 -18 6 -4
7 -4 10 1 6 4 -4 16 -3 26 2 12 7 20 6 25 -2 5 -7 3 -8 -7 -3 -11 7 -11 5 1
-9 18 -22 25 -5 10 23 -9 17 -8 21 5 21 9 0 14 -4 10 -9 -3 -5 0 -13 6 -17 7
-4 9 -3 5 4 -3 5 -1 12 5 14 6 2 1 8 -12 14 -19 8 -28 7 -42 -8z"/>
<path d="M1585 3000 c-3 -6 1 -7 9 -4 18 7 21 14 7 14 -6 0 -13 -4 -16 -10z"/>
<path d="M3581 2996 c-9 -11 -8 -15 5 -20 18 -7 61 19 46 28 -6 3 -12 -1 -16
-9 -3 -8 -10 -15 -17 -15 -6 0 -9 7 -5 15 7 19 2 19 -13 1z"/>
<path d="M3787 2999 c7 -7 15 -10 18 -7 3 3 -2 9 -12 12 -14 6 -15 5 -6 -5z"/>
<path d="M3678 2988 c10 -13 10 -17 0 -22 -7 -3 -3 -3 10 0 14 3 22 1 22 -7 0
-7 7 -5 16 7 15 19 16 19 9 -1 -5 -15 -3 -17 6 -8 15 15 2 38 -15 24 -9 -7
-20 -5 -37 6 -21 15 -22 15 -11 1z"/>
<path d="M3845 2961 c5 -9 -22 -31 -29 -24 -3 4 -6 1 -6 -5 0 -17 15 -15 30 3
7 8 18 15 26 15 7 0 15 4 18 8 2 4 -6 8 -19 8 -13 0 -22 -2 -20 -5z"/>
<path d="M4330 2960 c-12 -7 -10 -9 7 -7 12 0 19 5 17 9 -6 10 -6 10 -24 -2z"/>
<path d="M3650 2950 c0 -5 5 -10 11 -10 5 0 7 5 4 10 -3 6 -8 10 -11 10 -2 0
-4 -4 -4 -10z"/>
<path d="M3767 2950 c10 -11 10 -17 -3 -31 -12 -13 -12 -18 -2 -22 7 -2 19 2
26 9 8 9 9 14 2 14 -6 0 -9 4 -6 9 3 5 -2 15 -12 22 -14 11 -15 11 -5 -1z"/>
<path d="M3694 2942 c5 -8 -1 -12 -14 -12 -13 0 -19 -4 -14 -11 10 -17 11 -52
2 -71 -5 -10 -4 -20 4 -24 6 -4 8 -3 5 3 -4 6 0 14 9 17 8 3 12 2 9 -3 -3 -5
-1 -13 5 -16 6 -4 9 -1 8 7 -2 7 3 12 10 11 6 -2 12 2 12 8 0 6 -6 9 -14 6
-14 -6 -26 11 -33 47 -3 16 -1 17 12 6 12 -10 13 -15 4 -20 -8 -6 -8 -9 0 -14
6 -4 11 -2 11 3 0 6 8 11 18 12 12 0 11 3 -7 10 -14 6 -21 15 -17 24 3 8 0 17
-6 21 -7 4 -8 3 -4 -4z"/>
<path d="M3733 2923 c0 -9 4 -10 14 -2 7 6 13 12 13 14 0 1 -6 2 -13 2 -8 0
-14 -6 -14 -14z"/>
<path d="M1380 2922 c0 -5 7 -9 15 -9 8 0 15 4 15 9 0 4 -7 8 -15 8 -8 0 -15
-4 -15 -8z"/>
<path d="M1490 2880 c0 -5 5 -10 11 -10 5 0 7 5 4 10 -3 6 -8 10 -11 10 -2 0
-4 -4 -4 -10z"/>
<path d="M3740 2880 c-9 -6 -10 -10 -3 -10 6 0 15 5 18 10 8 12 4 12 -15 0z"/>
<path d="M3914 2854 c3 -8 0 -14 -6 -14 -28 0 6 -14 37 -15 29 -1 32 1 25 19
-5 14 -17 21 -34 22 -19 1 -25 -3 -22 -12z"/>
<path d="M1430 2841 c0 -6 4 -13 10 -16 6 -3 7 1 4 9 -7 18 -14 21 -14 7z"/>
<path d="M1458 2838 c5 -5 16 -8 23 -6 8 3 3 7 -10 11 -17 4 -21 3 -13 -5z"/>
<path d="M4046 2778 c3 -5 10 -6 15 -3 13 9 11 12 -6 12 -8 0 -12 -4 -9 -9z"/>
<path d="M1211 2751 c-24 -16 -22 -49 4 -75 14 -14 25 -22 25 -19 0 3 10 -2
22 -13 12 -10 18 -13 14 -6 -4 6 -2 12 3 12 6 0 11 -5 11 -12 0 -6 3 -8 6 -5
4 4 1 14 -7 24 -12 15 -12 16 4 10 12 -5 4 11 -23 43 -23 27 -43 50 -43 50 -1
0 -8 -4 -16 -9z"/>
<path d="M1502 2739 c-9 -11 -32 -37 -49 -57 -35 -39 -40 -52 -22 -52 8 0 7
-5 -1 -15 -11 -13 -10 -14 4 -9 19 7 20 16 5 31 -7 7 -2 17 19 32 26 18 31 19
36 5 4 -10 2 -13 -6 -8 -6 4 -8 3 -4 -4 3 -6 1 -14 -5 -18 -8 -4 -9 -3 -5 4 5
8 1 10 -10 5 -15 -6 -15 -7 -1 -18 12 -9 14 -14 5 -23 -7 -7 -8 -12 -2 -12 5
0 2 -5 -6 -10 -12 -7 -10 -11 10 -18 22 -9 23 -11 8 -17 -10 -4 -18 -12 -18
-17 0 -6 7 -4 16 3 14 12 16 11 12 -6 -2 -11 -9 -19 -16 -18 -6 2 -9 -4 -6
-12 5 -11 -2 -15 -22 -16 -22 -1 -24 -3 -8 -6 16 -3 20 -9 16 -25 -3 -14 -1
-19 7 -17 7 3 13 9 13 14 0 6 5 16 10 23 9 11 13 11 21 0 6 -9 7 -8 3 4 -3 11
2 21 12 27 9 5 13 13 9 17 -5 5 -12 2 -18 -6 -7 -11 -8 -8 -5 13 3 20 -1 31
-14 39 -14 9 -16 16 -8 25 6 7 7 13 4 13 -4 0 -2 9 4 20 6 11 15 18 19 15 5
-2 8 3 7 13 0 9 4 16 9 15 16 -3 15 34 -1 48 -11 9 -12 15 -3 25 6 8 9 14 5
14 -3 0 -14 -9 -24 -21z m15 -54 c-9 -8 -15 -12 -12 -9 3 4 0 13 -6 20 -17 21
0 39 19 20 15 -15 15 -17 -1 -31z m-17 -179 c0 -2 -7 -9 -15 -16 -13 -11 -14
-10 -9 4 5 14 24 23 24 12z"/>
<path d="M1500 2711 c0 -5 5 -13 10 -16 6 -3 10 -2 10 4 0 5 -4 13 -10 16 -5
3 -10 2 -10 -4z"/>
<path d="M3800 2755 c-1 -5 -3 -20 -6 -33 -5 -28 39 -53 59 -33 15 15 -4 47
-26 43 -9 -1 -18 5 -20 15 -3 10 -6 14 -7 8z"/>
<path d="M4011 2750 c-12 -7 -12 -11 2 -25 16 -15 18 -15 23 0 9 21 -7 37 -25
25z"/>
<path d="M994 2739 c-3 -6 1 -17 10 -25 9 -8 14 -11 11 -8 -3 4 0 13 5 19 8 9
6 14 -4 18 -9 4 -18 1 -22 -4z"/>
<path d="M3710 2729 c0 -5 5 -7 10 -4 6 3 10 8 10 11 0 2 -4 4 -10 4 -5 0 -10
-5 -10 -11z"/>
<path d="M3725 2710 c-4 -6 -11 -8 -16 -5 -5 4 -12 -1 -15 -9 -3 -9 -10 -16
-16 -16 -5 0 -6 5 -2 12 5 7 3 8 -5 3 -10 -5 -10 -10 -1 -19 8 -8 15 -7 24 6
12 16 14 16 31 0 17 -15 17 -15 6 0 -7 10 -8 19 -2 22 5 3 12 0 14 -6 4 -9 6
-10 6 -1 1 16 -16 26 -24 13z"/>
<path d="M1374 2681 c0 -11 5 -17 13 -14 10 4 11 9 2 19 -15 18 -15 18 -15 -5z"/>
<path d="M3696 2662 c-3 -5 1 -9 9 -9 8 0 12 4 9 9 -3 4 -7 8 -9 8 -2 0 -6 -4
-9 -8z"/>
<path d="M1329 2649 c-11 -7 -11 -9 -1 -9 7 0 11 -4 7 -9 -3 -5 0 -13 7 -17 7
-4 10 -4 6 1 -4 4 0 13 9 20 14 10 14 13 1 17 -8 4 -21 2 -29 -3z"/>
<path d="M3732 2626 c-1 -15 1 -17 7 -7 5 7 15 17 22 22 10 6 8 8 -7 7 -12 -1
-21 -10 -22 -22z"/>
<path d="M3775 2626 c-11 -11 -18 -20 -16 -18 2 1 15 -5 28 -14 23 -15 24 -15
14 4 -8 15 -8 22 2 25 8 3 9 8 2 15 -7 6 -17 3 -30 -12z"/>
<path d="M4037 2633 c-4 -3 -7 -15 -7 -25 0 -21 32 -25 49 -5 17 22 -22 50
-42 30z"/>
<path d="M1373 2623 c4 -3 1 -13 -6 -22 -11 -14 -10 -14 5 -2 16 12 16 31 1
31 -4 0 -3 -3 0 -7z"/>
<path d="M4186 2615 c-3 -8 -1 -17 3 -20 5 -3 11 2 15 10 3 8 1 17 -3 20 -5 3
-11 -2 -15 -10z"/>
<path d="M3971 2603 c9 -9 8 -13 0 -13 -7 0 -11 -6 -9 -14 2 -8 -6 -22 -17
-31 -11 -9 -14 -14 -7 -10 6 3 12 1 12 -4 0 -6 7 -11 15 -11 8 0 15 5 15 12 0
6 3 8 7 5 3 -4 13 -1 21 6 13 9 14 9 8 0 -5 -9 -2 -11 8 -7 19 7 5 38 -25 54
-11 6 -17 15 -15 19 3 4 -1 8 -9 8 -11 0 -12 -4 -4 -14z"/>
<path d="M3675 2580 c-3 -5 -1 -10 4 -10 6 0 11 5 11 10 0 6 -2 10 -4 10 -3 0
-8 -4 -11 -10z"/>
<path d="M3706 2578 c3 -5 10 -6 15 -3 13 9 11 12 -6 12 -8 0 -12 -4 -9 -9z"/>
<path d="M1381 2577 c2 -1 11 -8 21 -15 12 -10 18 -10 24 -1 4 7 3 9 -4 5 -6
-3 -13 -2 -17 4 -3 5 -11 10 -17 10 -6 0 -9 -1 -7 -3z"/>
<path d="M3781 2554 c0 -11 3 -14 6 -6 3 7 2 16 -1 19 -3 4 -6 -2 -5 -13z"/>
<path d="M3896 2561 c-3 -4 4 -7 14 -8 11 -1 22 2 24 6 3 4 -4 7 -14 8 -11 1
-22 -2 -24 -6z"/>
<path d="M1320 2535 c-7 -8 -16 -12 -21 -9 -5 3 -6 -3 -2 -12 4 -11 8 -13 11
-6 2 7 9 9 15 5 7 -3 9 -3 5 2 -4 4 -3 14 3 22 6 7 9 13 6 13 -2 0 -10 -7 -17
-15z"/>
<path d="M1370 2543 c0 -6 5 -15 11 -19 8 -5 8 -9 -1 -14 -7 -4 -1 -7 15 -7
22 0 25 1 12 9 -9 5 -21 16 -26 26 -6 9 -11 12 -11 5z"/>
<path d="M1435 2540 c3 -5 8 -10 11 -10 2 0 4 5 4 10 0 6 -5 10 -11 10 -5 0
-7 -4 -4 -10z"/>
<path d="M3815 2540 c3 -5 8 -10 11 -10 2 0 4 5 4 10 0 6 -5 10 -11 10 -5 0
-7 -4 -4 -10z"/>
<path d="M859 2528 c-7 -24 -5 -38 6 -38 8 0 13 9 12 20 -1 16 -14 29 -18 18z"/>
<path d="M1127 2517 c-3 -8 0 -14 7 -14 7 0 13 6 13 14 0 7 -4 13 -8 13 -4 0
-9 -6 -12 -13z"/>
<path d="M3573 2509 c-2 -23 3 -25 10 -4 4 8 3 16 -1 19 -4 3 -9 -4 -9 -15z"/>
<path d="M3786 2522 c-3 -5 1 -9 9 -9 8 0 15 4 15 9 0 4 -4 8 -9 8 -6 0 -12
-4 -15 -8z"/>
<path d="M3636 2507 c3 -10 9 -15 12 -12 3 3 0 11 -7 18 -10 9 -11 8 -5 -6z"/>
<path d="M1206 2502 c-3 -5 1 -9 9 -9 8 0 12 4 9 9 -3 4 -7 8 -9 8 -2 0 -6 -4
-9 -8z"/>
<path d="M3820 2498 c0 -4 6 -8 14 -8 8 0 17 4 20 8 2 4 -4 8 -15 8 -10 0 -19
-4 -19 -8z"/>
<path d="M3958 2503 c7 -3 16 -2 19 1 4 3 -2 6 -13 5 -11 0 -14 -3 -6 -6z"/>
<path d="M1294 2479 c-4 -7 -3 -9 4 -5 6 3 13 2 17 -4 3 -6 -1 -13 -10 -16
-10 -4 -14 -14 -10 -28 2 -11 2 -15 -1 -8 -5 10 -9 10 -20 1 -8 -6 -14 -8 -14
-3 0 5 -5 2 -11 -6 -9 -13 -10 -13 -6 0 2 8 10 15 17 15 7 0 15 5 17 11 3 10
-12 11 -50 5 -5 0 -5 -5 -2 -11 3 -6 -4 -10 -17 -10 -18 0 -20 -2 -8 -10 11
-7 11 -10 2 -10 -7 0 -10 -4 -7 -10 3 -5 -2 -21 -11 -35 -16 -25 -10 -32 15
-16 7 5 10 14 7 20 -5 7 1 11 14 11 12 0 19 -4 16 -8 -3 -5 2 -9 10 -9 8 0 13
6 10 13 -3 8 2 11 14 9 10 -2 21 3 24 11 3 7 12 11 19 8 8 -3 17 2 21 11 3 9
11 13 17 10 6 -4 8 -13 5 -21 -3 -9 1 -14 14 -14 10 0 21 -4 24 -8 3 -5 -9 -7
-27 -5 -28 3 -29 2 -9 -7 12 -5 22 -15 22 -22 0 -7 8 -1 17 12 20 30 34 40 45
34 4 -3 8 -1 8 5 0 5 3 16 6 25 4 10 0 14 -14 13 -12 0 -18 -5 -16 -9 3 -4 2
-13 -2 -20 -5 -8 -10 -6 -16 8 -7 17 -8 16 -4 -3 5 -29 -7 -29 -34 -1 -22 24
-28 47 -6 29 10 -9 16 -7 27 6 7 10 9 15 5 11 -14 -12 -36 11 -29 30 3 9 3 14
-1 10 -4 -3 -9 -13 -10 -22 -1 -9 -5 -16 -9 -16 -4 0 -12 0 -18 0 -5 0 -8 4
-5 9 3 5 -1 14 -8 20 -11 9 -16 9 -22 0z m38 -43 c6 4 5 -2 -1 -15 -15 -28
-19 -27 -18 7 0 15 2 21 4 14 3 -6 9 -9 15 -6z"/>
<path d="M1200 2460 c7 -13 6 -20 -3 -23 -6 -3 -7 -6 -2 -6 6 0 21 8 35 19 17
14 20 20 10 21 -8 0 -23 2 -32 4 -14 3 -16 0 -8 -15z"/>
<path d="M3851 2451 c13 -17 28 -31 33 -30 6 0 5 3 -1 6 -7 2 -13 10 -13 16 0
7 -9 18 -21 25 -19 12 -19 12 2 -17z"/>
<path d="M1410 2462 c0 -5 7 -9 15 -9 8 0 12 4 9 9 -3 4 -9 8 -15 8 -5 0 -9
-4 -9 -8z"/>
<path d="M3600 2460 c-11 -7 -11 -10 -2 -10 7 0 11 -4 8 -8 -2 -4 4 -8 14 -8
10 0 16 4 14 8 -3 4 3 8 13 8 15 0 16 2 3 10 -8 5 -19 10 -25 10 -5 0 -17 -5
-25 -10z"/>
<path d="M4085 2440 c-4 -6 -11 -8 -16 -5 -5 3 -6 -1 -3 -9 3 -9 10 -14 14
-11 5 3 11 1 15 -5 8 -12 16 -12 35 0 13 8 12 11 -5 24 -24 18 -32 19 -40 6z"/>
<path d="M3845 2410 c3 -5 1 -10 -4 -10 -6 0 -11 -5 -11 -12 0 -9 3 -9 12 0 7
7 16 12 22 12 6 0 5 -5 -1 -11 -8 -8 -9 -19 -2 -38 6 -14 10 -27 9 -29 -1 -2
2 -7 6 -10 4 -4 4 -1 0 6 -4 6 -2 12 3 12 6 0 11 5 11 11 0 5 -4 7 -10 4 -5
-3 -10 1 -10 10 0 9 5 13 10 10 6 -3 10 -1 10 4 0 6 -5 11 -12 11 -6 0 -8 3
-5 7 8 7 -11 33 -25 33 -5 0 -6 -4 -3 -10z"/>
<path d="M1296 2371 c-4 -6 -11 -9 -16 -6 -5 3 -12 -6 -16 -21 -4 -14 -9 -22
-13 -17 -8 12 -31 10 -31 -2 0 -11 108 -16 115 -6 2 4 -5 8 -16 9 -43 4 -49 6
-49 15 0 5 7 6 16 3 8 -3 12 -2 9 4 -3 6 -1 10 4 10 6 0 11 -5 11 -12 0 -6 3
-9 6 -5 3 3 2 13 -4 23 -6 11 -11 13 -16 5z"/>
<path d="M3815 2360 c3 -5 1 -19 -5 -30 -9 -16 -8 -18 5 -14 8 3 12 10 9 15
-3 5 2 9 11 9 15 0 15 2 1 15 -16 17 -30 20 -21 5z"/>
<path d="M1352 2337 c0 -7 -3 -23 -6 -36 -3 -14 -1 -30 5 -38 9 -10 8 -13 -1
-13 -7 0 -10 -7 -6 -15 4 -11 0 -15 -12 -13 -9 2 -16 -2 -15 -8 1 -7 -6 -10
-19 -6 -20 5 -20 5 3 23 13 10 25 29 26 43 l2 25 -21 -21 c-14 -14 -23 -17
-31 -9 -6 6 -14 11 -18 11 -12 0 -18 -40 -7 -47 7 -4 8 -1 4 6 -5 8 -3 11 5
10 8 -2 24 2 37 9 31 17 28 -2 -4 -23 -20 -13 -23 -19 -13 -31 13 -16 49 -19
49 -4 0 6 5 10 10 10 18 0 10 -17 -12 -28 -17 -8 -19 -11 -6 -11 9 -1 19 -7
21 -13 3 -7 6 -3 6 9 1 15 7 21 21 20 11 -1 18 -6 16 -12 -2 -5 -10 -9 -17 -7
-8 2 -4 -7 9 -20 12 -14 19 -28 15 -33 -5 -4 -2 -5 5 -1 7 4 12 15 10 24 -1
10 1 23 6 30 5 8 1 20 -9 32 -13 15 -14 22 -5 40 9 17 9 25 -1 34 -9 8 -10 8
-5 -2 4 -7 1 -15 -8 -18 -8 -3 -12 -12 -9 -20 4 -10 0 -12 -11 -8 -15 6 -15 8
-1 24 19 21 19 31 0 24 -8 -4 -15 -1 -15 4 0 6 8 9 18 7 33 -6 38 9 11 37 -14
15 -26 22 -27 15z m22 -38 c-3 -5 -10 -7 -15 -3 -5 3 -7 10 -3 15 3 5 10 7 15
3 5 -3 7 -10 3 -15z m8 -94 c3 0 9 -3 13 -7 4 -3 0 -5 -9 -4 -9 1 -22 8 -29
16 -10 10 -9 11 3 4 8 -5 18 -9 22 -9z m19 -38 c-6 -8 -7 -18 -3 -22 4 -5 1
-5 -6 -1 -10 6 -10 11 -1 22 6 8 14 14 16 14 3 0 0 -6 -6 -13z"/>
<path d="M3537 2344 c-3 -3 -1 -17 5 -30 8 -18 17 -23 31 -18 13 4 17 2 13 -5
-5 -7 -1 -8 10 -4 12 4 14 8 6 11 -10 3 -10 7 -1 18 8 10 8 14 0 14 -6 0 -11
-5 -11 -11 0 -6 -6 -9 -12 -6 -7 2 -12 11 -10 21 3 15 -18 22 -31 10z"/>
<path d="M4370 2330 c0 -5 -11 -10 -25 -10 -16 0 -23 -5 -19 -13 5 -14 62 -16
83 -3 9 6 9 11 0 22 -13 16 -39 19 -39 4z"/>
<path d="M3675 2311 c-3 -5 -2 -12 3 -15 5 -3 9 1 9 9 0 17 -3 19 -12 6z"/>
<path d="M1293 2295 c0 -8 4 -12 9 -9 5 3 6 10 3 15 -9 13 -12 11 -12 -6z"/>
<path d="M3710 2299 c0 -5 5 -7 10 -4 6 3 10 8 10 11 0 2 -4 4 -10 4 -5 0 -10
-5 -10 -11z"/>
<path d="M3890 2300 c0 -5 5 -10 11 -10 5 0 7 5 4 10 -3 6 -8 10 -11 10 -2 0
-4 -4 -4 -10z"/>
<path d="M3706 2263 c-6 -14 -5 -15 5 -6 7 7 10 15 7 18 -3 3 -9 -2 -12 -12z"/>
<path d="M1107 2230 c15 -19 31 -38 37 -42 17 -12 28 3 14 20 -10 12 -10 14 0
8 14 -9 16 3 2 24 -9 13 -12 13 -24 -3 -15 -19 -25 -12 -21 13 2 9 -5 16 -16
16 -16 0 -15 -4 8 -36z"/>
<path d="M1195 2260 c-3 -5 0 -10 9 -10 8 0 16 -6 19 -12 3 -7 4 -3 4 10 -1
22 -21 30 -32 12z"/>
<path d="M3855 2249 c-4 -6 -5 -12 -2 -15 2 -3 7 2 10 11 7 17 1 20 -8 4z"/>
<path d="M3479 2223 c-6 -7 -16 -10 -23 -6 -6 3 -3 -3 8 -15 10 -12 24 -19 30
-16 6 4 0 -4 -14 -17 -14 -13 -21 -20 -14 -16 7 4 16 7 20 6 22 -4 35 2 28 12
-4 8 1 9 17 5 13 -3 9 1 -10 10 -31 14 -32 16 -17 33 14 15 14 18 1 18 -8 0
-20 -6 -26 -14z m12 -6 c-6 -8 -7 -18 -3 -22 4 -5 1 -5 -6 -1 -10 6 -10 11 -1
22 6 8 14 14 16 14 3 0 0 -6 -6 -13z"/>
<path d="M3714 2231 c7 -11 46 -35 46 -28 0 3 -12 12 -26 22 -15 9 -23 12 -20
6z"/>
<path d="M3520 2215 c-7 -9 -8 -15 -2 -15 5 0 12 7 16 15 3 8 4 15 2 15 -2 0
-9 -7 -16 -15z"/>
<path d="M3865 2200 c-10 -11 -16 -22 -14 -24 2 -2 12 7 22 20 22 29 17 32 -8
4z"/>
<path d="M3731 2193 c-1 -17 16 -25 25 -12 4 7 3 9 -4 5 -5 -3 -13 0 -15 6 -4
9 -6 10 -6 1z"/>
<path d="M1136 2167 c3 -10 9 -15 12 -12 3 3 0 11 -7 18 -10 9 -11 8 -5 -6z"/>
<path d="M1040 2160 c-9 -6 -10 -10 -3 -10 6 0 15 5 18 10 8 12 4 12 -15 0z"/>
<path d="M3885 2160 c-3 -6 1 -7 9 -4 18 7 21 14 7 14 -6 0 -13 -4 -16 -10z"/>
<path d="M1429 2143 c-13 -16 -12 -17 4 -4 16 13 21 21 13 21 -2 0 -10 -8 -17
-17z"/>
<path d="M3507 2136 c-4 -10 -1 -13 8 -9 8 3 12 9 9 14 -7 12 -11 11 -17 -5z"/>
<path d="M3535 2120 c-3 -5 -1 -10 4 -10 6 0 11 5 11 10 0 6 -2 10 -4 10 -3 0
-8 -4 -11 -10z"/>
<path d="M1232 2104 c-7 -8 -8 -14 -3 -14 10 0 25 19 20 25 -2 1 -10 -3 -17
-11z"/>
<path d="M1285 2110 c-4 -6 -11 -7 -17 -4 -7 4 -8 2 -4 -5 4 -6 11 -9 16 -6 5
3 11 1 15 -5 3 -5 15 -15 26 -21 19 -10 19 -9 9 10 -6 12 -16 20 -23 18 -7 -1
-11 4 -9 11 3 15 -4 16 -13 2z"/>
<path d="M1390 2095 c0 -2 6 -8 13 -14 10 -8 14 -7 14 2 0 8 -6 14 -14 14 -7
0 -13 -1 -13 -2z"/>
<path d="M3910 2080 c0 -5 5 -10 11 -10 5 0 7 5 4 10 -3 6 -8 10 -11 10 -2 0
-4 -4 -4 -10z"/>
<path d="M4015 2073 c-8 -22 12 -42 35 -36 12 3 22 -1 26 -11 6 -16 44 -23 44
-8 0 16 -16 29 -32 26 -10 -1 -18 3 -18 9 0 7 -11 17 -24 23 -20 9 -26 9 -31
-3z"/>
<path d="M1277 2069 c7 -7 15 -10 18 -7 3 3 -2 9 -12 12 -14 6 -15 5 -6 -5z"/>
<path d="M1185 2050 c-3 -6 1 -7 9 -4 18 7 21 14 7 14 -6 0 -13 -4 -16 -10z"/>
<path d="M1255 2050 c-4 -6 -10 -8 -14 -6 -4 3 -8 -1 -8 -9 0 -13 4 -12 19 2
18 16 22 23 14 23 -3 0 -8 -5 -11 -10z"/>
<path d="M1286 2038 c3 -5 10 -6 15 -3 13 9 11 12 -6 12 -8 0 -12 -4 -9 -9z"/>
<path d="M1330 2038 c0 -9 5 -20 10 -23 13 -8 13 5 0 25 -8 13 -10 13 -10 -2z"/>
<path d="M3616 2038 c5 -8 2 -9 -9 -5 -10 3 -17 2 -17 -4 0 -14 32 -7 38 9 2
6 -1 12 -8 12 -6 0 -8 -5 -4 -12z"/>
<path d="M3915 2040 c-3 -5 -1 -10 4 -10 6 0 11 5 11 10 0 6 -2 10 -4 10 -3 0
-8 -4 -11 -10z"/>
<path d="M1255 2020 c-3 -5 -1 -10 4 -10 6 0 11 5 11 10 0 6 -2 10 -4 10 -3 0
-8 -4 -11 -10z"/>
<path d="M1310 1996 c0 -20 17 -29 26 -15 5 8 3 9 -6 4 -10 -6 -12 -4 -7 8 3
10 2 17 -3 17 -6 0 -10 -6 -10 -14z"/>
<path d="M3566 2002 c-3 -5 1 -9 9 -9 8 0 15 4 15 9 0 4 -4 8 -9 8 -6 0 -12
-4 -15 -8z"/>
<path d="M3476 1993 c-11 -11 -7 -20 9 -20 8 0 15 4 15 8 0 11 -16 20 -24 12z"/>
<path d="M4127 1983 c-9 -9 12 -33 29 -33 8 0 14 9 14 20 0 19 -28 28 -43 13z"/>
<path d="M1243 1974 c4 -4 2 -13 -5 -21 -6 -7 -8 -16 -4 -20 3 -3 6 0 6 7 0
10 4 9 13 -3 11 -16 12 -15 13 7 1 14 -5 27 -14 31 -9 3 -13 3 -9 -1z"/>
<path d="M1119 1968 c-7 -17 -5 -109 2 -113 8 -5 13 14 11 36 -1 4 -2 23 -4
43 -2 31 -5 43 -9 34z"/>
<path d="M3847 1963 c-4 -3 -7 -10 -7 -14 0 -11 29 -19 35 -10 6 11 -20 33
-28 24z"/>
<path d="M3517 1923 c4 -11 2 -14 -5 -9 -8 5 -10 2 -6 -9 4 -9 7 -15 8 -13 1
2 7 10 14 19 10 14 10 18 -2 22 -11 4 -13 1 -9 -10z"/>
<path d="M3700 1884 c9 -23 8 -25 -11 -19 -14 5 -19 3 -15 -3 3 -6 -2 -13 -11
-15 -17 -4 -17 -5 0 -6 11 -1 16 -6 12 -13 -4 -7 0 -5 8 5 8 9 24 17 35 17 39
0 36 24 -5 47 -21 12 -22 12 -13 -13z"/>
<path d="M3919 1893 c-13 -16 -12 -17 4 -4 9 7 17 15 17 17 0 8 -8 3 -21 -13z"/>
<path d="M1176 1879 c4 -8 30 -6 38 2 3 3 -5 5 -19 5 -13 0 -22 -3 -19 -7z"/>
<path d="M1240 1886 c0 -2 8 -10 18 -17 15 -13 16 -12 3 4 -13 16 -21 21 -21
13z"/>
<path d="M3510 1861 c0 -6 5 -13 10 -16 6 -3 10 1 10 9 0 9 -4 16 -10 16 -5 0
-10 -4 -10 -9z"/>
<path d="M3604 1842 c4 -3 14 -7 22 -8 9 -1 13 0 10 4 -4 3 -14 7 -22 8 -9 1
-13 0 -10 -4z"/>
<path d="M1215 1820 c-8 -13 5 -13 25 0 13 8 13 10 -2 10 -9 0 -20 -4 -23 -10z"/>
<path d="M1270 1823 c5 -2 8 -9 4 -14 -3 -5 0 -9 6 -9 15 0 7 23 -8 26 -7 1
-8 0 -2 -3z"/>
<path d="M3406 1821 c-3 -5 1 -14 9 -21 10 -9 15 -9 15 -1 0 6 -5 11 -11 11
-5 0 -7 5 -4 10 3 6 4 10 1 10 -3 0 -7 -4 -10 -9z"/>
<path d="M3550 1821 c0 -6 4 -13 10 -16 6 -3 7 1 4 9 -7 18 -14 21 -14 7z"/>
<path d="M1119 1793 c-13 -16 -12 -17 4 -4 9 7 17 15 17 17 0 8 -8 3 -21 -13z"/>
<path d="M3615 1800 c3 -5 8 -10 11 -10 2 0 4 5 4 10 0 6 -5 10 -11 10 -5 0
-7 -4 -4 -10z"/>
<path d="M3794 1798 c-5 -7 -3 -8 6 -3 9 5 11 4 6 -3 -4 -7 -15 -12 -24 -12
-11 0 -6 -8 16 -21 17 -12 32 -23 32 -26 0 -2 -4 -2 -9 1 -5 3 -11 0 -14 -7
-4 -10 2 -13 21 -9 30 5 74 32 54 32 -7 0 -11 4 -7 9 3 5 1 12 -5 16 -6 4 -8
10 -5 15 3 5 1 11 -4 14 -5 4 -12 2 -16 -4 -4 -7 -12 -7 -25 0 -13 7 -21 7
-26 -2z"/>
<path d="M1080 1785 c-1 -5 -2 -14 -1 -19 1 -5 -5 -6 -13 -3 -10 4 -13 1 -9
-8 3 -8 9 -13 13 -10 5 3 10 -1 13 -7 8 -24 13 -3 6 27 -4 17 -8 26 -9 20z"/>
<path d="M1232 1770 c-7 -12 -8 -20 -2 -20 5 0 10 5 10 10 0 6 5 9 11 8 6 -2
14 4 16 12 4 12 3 12 -5 1 -6 -9 -11 -10 -13 -2 -2 6 -10 2 -17 -9z"/>
<path d="M3440 1780 c-9 -6 -10 -10 -3 -10 6 0 15 5 18 10 8 12 4 12 -15 0z"/>
<path d="M3560 1769 c0 -5 -4 -7 -10 -4 -6 4 -7 -1 -3 -11 5 -13 3 -15 -7 -9
-8 5 -11 4 -6 -3 4 -6 13 -9 22 -5 8 3 14 2 13 -3 -6 -34 21 -43 39 -14 8 14
6 22 -9 39 -21 23 -39 27 -39 10z"/>
<path d="M1195 1760 c-3 -5 -1 -10 4 -10 6 0 11 5 11 10 0 6 -2 10 -4 10 -3 0
-8 -4 -11 -10z"/>
<path d="M1157 1736 c-4 -10 -2 -25 4 -32 6 -8 8 -22 5 -31 -6 -17 -5 -17 7
-1 8 10 16 16 19 13 2 -3 5 1 5 9 0 9 -6 12 -16 8 -14 -5 -14 -4 -2 11 8 10
11 20 7 24 -3 3 -6 0 -7 -8 0 -8 -3 -6 -8 5 -7 18 -8 19 -14 2z"/>
<path d="M3411 1736 c-15 -18 5 -34 22 -17 8 8 8 11 -2 11 -7 0 -9 5 -6 10 9
15 -1 12 -14 -4z"/>
<path d="M3627 1730 c-4 -14 0 -20 11 -21 10 0 24 -2 33 -4 20 -4 50 18 41 31
-11 14 -46 11 -54 -6 -5 -12 -7 -12 -7 3 -1 23 -17 22 -24 -3z"/>
<path d="M3775 1740 c-3 -6 1 -7 9 -4 18 7 21 14 7 14 -6 0 -13 -4 -16 -10z"/>
<path d="M935 1729 c-4 -6 -5 -12 -2 -15 2 -3 7 2 10 11 7 17 1 20 -8 4z"/>
<path d="M966 1722 c-3 -5 1 -9 9 -9 8 0 12 4 9 9 -3 4 -7 8 -9 8 -2 0 -6 -4
-9 -8z"/>
<path d="M3486 1708 c5 -7 2 -9 -9 -5 -11 4 -14 2 -10 -9 4 -11 9 -12 19 -3
12 10 11 29 -2 29 -3 0 -2 -5 2 -12z"/>
<path d="M1301 1686 c-9 -10 -8 -15 3 -19 10 -4 14 0 13 14 -2 23 -1 23 -16 5z"/>
<path d="M3389 1683 c-13 -16 -12 -17 4 -4 9 7 17 15 17 17 0 8 -8 3 -21 -13z"/>
<path d="M3433 1675 c0 -8 4 -12 9 -9 5 3 6 10 3 15 -9 13 -12 11 -12 -6z"/>
<path d="M3510 1682 c0 -5 7 -9 15 -9 8 0 12 4 9 9 -3 4 -9 8 -15 8 -5 0 -9
-4 -9 -8z"/>
<path d="M1093 1638 c3 -9 1 -19 -6 -22 -9 -3 -9 -5 0 -5 18 -1 23 13 11 29
-8 12 -9 12 -5 -2z"/>
<path d="M3505 1640 c-3 -6 1 -7 9 -4 18 7 21 14 7 14 -6 0 -13 -4 -16 -10z"/>
<path d="M3365 1628 c10 -25 41 -29 42 -6 2 15 -1 17 -11 9 -9 -7 -16 -7 -25
2 -10 9 -11 9 -6 -5z"/>
<path d="M3440 1620 c-9 -6 -10 -10 -3 -10 6 0 15 5 18 10 8 12 4 12 -15 0z"/>
<path d="M3540 1620 c-9 -6 -10 -10 -3 -10 6 0 15 5 18 10 8 12 4 12 -15 0z"/>
<path d="M3715 1621 c-3 -5 -2 -12 3 -15 5 -3 9 1 9 9 0 17 -3 19 -12 6z"/>
<path d="M1180 1617 c0 -11 39 -47 43 -40 3 4 -6 16 -19 26 -13 10 -24 16 -24
14z"/>
<path d="M3326 1604 c-21 -20 -20 -26 5 -48 12 -10 18 -21 13 -25 -5 -3 -9
-16 -10 -27 -1 -16 3 -20 17 -17 20 6 25 18 10 27 -15 10 11 54 29 49 13 -4
13 -3 1 5 -10 7 -21 7 -32 1 -23 -12 -34 5 -19 28 10 16 11 16 6 1 -3 -12 -1
-15 9 -12 14 6 10 34 -5 34 -5 0 -16 -7 -24 -16z"/>
<path d="M1033 1595 c0 -8 4 -12 9 -9 5 3 6 10 3 15 -9 13 -12 11 -12 -6z"/>
<path d="M3295 1600 c-3 -5 -1 -10 4 -10 6 0 11 5 11 10 0 6 -2 10 -4 10 -3 0
-8 -4 -11 -10z"/>
<path d="M3499 1593 c-13 -16 -12 -17 4 -4 16 13 21 21 13 21 -2 0 -10 -8 -17
-17z"/>
<path d="M1094 1579 c-4 -7 -3 -9 4 -5 5 3 13 0 15 -6 4 -9 6 -10 6 -1 1 17
-16 25 -25 12z"/>
<path d="M3653 1575 c0 -8 4 -12 9 -9 5 3 6 10 3 15 -9 13 -12 11 -12 -6z"/>
<path d="M3534 1558 c-5 -7 -3 -8 6 -3 9 6 12 4 8 -7 -4 -8 0 -15 7 -15 10 0
11 5 4 19 -11 21 -15 22 -25 6z"/>
<path d="M3589 1543 c-13 -16 -12 -17 4 -4 9 7 17 15 17 17 0 8 -8 3 -21 -13z"/>
<path d="M1254 1528 c-10 -13 -12 -18 -5 -11 14 12 44 6 36 -7 -3 -5 -1 -11 3
-14 8 -5 9 13 3 47 -2 13 -18 7 -37 -15z"/>
<path d="M3635 1540 c3 -5 8 -10 11 -10 2 0 4 5 4 10 0 6 -5 10 -11 10 -5 0
-7 -4 -4 -10z"/>
<path d="M3517 1533 c-10 -9 -9 -23 1 -23 5 0 9 7 9 15 0 17 -1 18 -10 8z"/>
<path d="M3610 1520 c0 -5 5 -10 10 -10 6 0 10 5 10 10 0 6 -4 10 -10 10 -5 0
-10 -4 -10 -10z"/>
<path d="M3560 1490 c-6 -11 -8 -20 -4 -20 3 0 1 -6 -5 -13 -6 -8 -8 -17 -4
-20 3 -4 0 -13 -6 -21 -8 -10 -9 -16 -1 -21 6 -4 10 -12 9 -18 -4 -37 22 -47
42 -16 12 20 11 26 -6 26 -11 0 -14 -7 -10 -21 5 -19 5 -19 -5 -3 -6 9 -8 22
-4 29 4 7 3 8 -4 4 -7 -4 -12 -2 -12 3 0 6 7 11 15 11 8 0 15 -6 15 -12 0 -9
4 -8 10 2 9 13 10 13 10 0 0 -13 1 -13 10 0 7 11 10 11 10 2 0 -7 4 -10 10 -7
6 3 7 -1 3 -10 -5 -13 -7 -14 -14 -3 -6 9 -9 9 -9 1 0 -16 17 -26 25 -13 4 6
11 7 17 4 8 -5 9 -1 5 10 -4 10 -3 15 3 11 6 -3 10 -2 10 3 0 13 -19 20 -47
17 -13 -1 -23 2 -23 6 0 4 -7 6 -16 5 -18 -1 -28 30 -14 39 5 3 6 13 3 22 -5
12 -3 14 7 8 9 -5 11 -4 6 3 -10 16 -14 15 -26 -8z"/>
<path d="M3660 1470 c-6 -11 -9 -20 -8 -20 2 0 11 9 21 20 9 11 13 20 7 20 -5
0 -14 -9 -20 -20z"/>
<path d="M3776 1478 c3 -5 10 -6 15 -3 13 9 11 12 -6 12 -8 0 -12 -4 -9 -9z"/>
<path d="M1147 1450 c3 -10 11 -24 19 -31 10 -8 10 -3 -2 20 -18 35 -24 40
-17 11z"/>
<path d="M3586 1461 c-4 -5 3 -7 14 -4 23 6 26 13 6 13 -8 0 -17 -4 -20 -9z"/>
<path d="M4455 1460 c3 -5 8 -10 11 -10 2 0 4 5 4 10 0 6 -5 10 -11 10 -5 0
-7 -4 -4 -10z"/>
<path d="M1192 1427 c1 -14 5 -24 9 -21 9 5 6 31 -4 40 -4 4 -6 -4 -5 -19z"/>
<path d="M3508 1443 c7 -3 16 -2 19 1 4 3 -2 6 -13 5 -11 0 -14 -3 -6 -6z"/>
<path d="M3610 1439 c0 -5 5 -7 10 -4 6 3 10 8 10 11 0 2 -4 4 -10 4 -5 0 -10
-5 -10 -11z"/>
<path d="M1155 1383 c3 -3 0 -11 -5 -18 -7 -8 -5 -12 4 -12 14 0 16 22 3 32
-4 3 -5 2 -2 -2z"/>
<path d="M1190 1380 c8 -5 20 -10 25 -10 6 0 3 5 -5 10 -8 5 -19 10 -25 10 -5
0 -3 -5 5 -10z"/>
<path d="M3670 1380 c0 -5 5 -10 10 -10 6 0 10 5 10 10 0 6 -4 10 -10 10 -5 0
-10 -4 -10 -10z"/>
<path d="M1176 1318 c3 -5 10 -6 15 -3 13 9 11 12 -6 12 -8 0 -12 -4 -9 -9z"/>
<path d="M3577 1323 c-9 -14 8 -33 21 -24 10 6 10 10 -2 20 -8 7 -17 8 -19 4z"/>
<path d="M1230 1273 c0 -5 14 -16 30 -25 28 -16 41 -38 22 -38 -5 0 -9 -7 -9
-15 0 -8 4 -12 9 -9 4 3 8 1 8 -5 0 -5 -5 -11 -12 -13 -7 -3 -5 -7 6 -11 10
-4 15 -3 11 3 -3 6 4 10 16 10 22 0 22 1 4 13 -12 10 -15 19 -9 28 11 18 14
40 5 34 -4 -2 -24 5 -44 15 -21 11 -37 17 -37 13z"/>
<path d="M1207 1255 c-4 -8 -3 -16 1 -19 4 -3 9 4 9 15 2 23 -3 25 -10 4z"/>
<path d="M1214 1202 c3 -6 -4 -21 -16 -33 -13 -12 -17 -19 -10 -15 7 4 15 1
18 -8 3 -9 11 -16 16 -16 6 0 6 6 -1 14 -9 11 -9 20 -2 35 8 14 8 22 -1 27 -6
4 -8 3 -4 -4z"/>
<path d="M1157 1189 c7 -7 15 -10 18 -7 3 3 -2 9 -12 12 -14 6 -15 5 -6 -5z"/>
<path d="M1123 1154 c4 -4 2 -13 -5 -21 -17 -20 -5 -22 14 -2 15 16 15 18 0
24 -9 3 -13 3 -9 -1z"/>
<path d="M1069 1123 c-13 -17 -13 -17 6 -3 11 8 22 16 24 17 2 2 0 3 -6 3 -6
0 -17 -8 -24 -17z"/>
<path d="M1150 1121 c0 -6 4 -12 8 -15 5 -3 9 1 9 9 0 8 -4 15 -9 15 -4 0 -8
-4 -8 -9z"/>
<path d="M3270 1120 c0 -5 5 -10 10 -10 6 0 10 5 10 10 0 6 -4 10 -10 10 -5 0
-10 -4 -10 -10z"/>
<path d="M1286 1083 c-6 -14 -5 -15 5 -6 7 7 10 15 7 18 -3 3 -9 -2 -12 -12z"/>
<path d="M3264 1088 c-4 -6 1 -17 11 -24 16 -12 21 -11 37 3 10 9 16 19 13 22
-4 3 -10 0 -14 -8 -7 -10 -10 -9 -14 3 -7 19 -23 21 -33 4z m29 -12 c4 -10 1
-13 -8 -9 -8 3 -12 9 -9 14 7 12 11 11 17 -5z"/>
<path d="M1231 1087 c2 -1 12 -9 22 -16 15 -12 17 -12 11 3 -3 9 -13 16 -22
16 -8 0 -13 -1 -11 -3z"/>
<path d="M1220 1066 c0 -2 7 -7 16 -10 8 -3 12 -2 9 4 -6 10 -25 14 -25 6z"/>
<path d="M1149 1043 c-13 -16 -12 -17 4 -4 9 7 17 15 17 17 0 8 -8 3 -21 -13z"/>
<path d="M1115 1040 c-3 -5 -1 -10 4 -10 6 0 11 5 11 10 0 6 -2 10 -4 10 -3 0
-8 -4 -11 -10z"/>
<path d="M1333 1035 c0 -8 4 -12 9 -9 4 3 8 9 8 15 0 5 -4 9 -8 9 -5 0 -9 -7
-9 -15z"/>
<path d="M3172 1033 c8 -11 7 -12 -8 -8 -13 5 -12 2 4 -7 12 -8 20 -17 17 -21
-3 -4 -2 -5 2 -2 3 3 12 0 20 -6 10 -9 13 -8 14 2 0 8 3 25 5 39 4 24 4 24
-10 5 -8 -11 -12 -24 -9 -30 4 -5 2 -6 -2 -2 -12 10 -15 38 -4 31 5 -3 9 0 9
5 0 6 -11 10 -24 9 -19 -2 -22 -5 -14 -15z"/>
<path d="M1394 1010 c0 -16 3 -27 7 -24 5 2 5 12 2 22 -6 15 -5 15 10 3 15
-12 17 -12 11 2 -11 29 -30 27 -30 -3z"/>
<path d="M3091 988 c-7 -13 -10 -20 -6 -16 5 4 15 2 24 -4 13 -10 14 -10 4 1
-6 7 -9 20 -6 27 8 21 -1 17 -16 -8z"/>
<path d="M1240 980 c-12 -7 -10 -9 7 -7 12 0 19 5 17 9 -6 10 -6 10 -24 -2z"/>
<path d="M1213 955 c0 -8 4 -12 9 -9 5 3 6 10 3 15 -9 13 -12 11 -12 -6z"/>
<path d="M1464 950 c0 -13 4 -16 10 -10 7 7 7 13 0 20 -6 6 -10 3 -10 -10z"/>
<path d="M1276 927 c3 -10 9 -15 12 -12 3 3 0 11 -7 18 -10 9 -11 8 -5 -6z"/>
<path d="M1365 880 c4 -6 11 -8 16 -5 14 9 11 15 -7 15 -8 0 -12 -5 -9 -10z"/>
<path d="M1280 841 c0 -5 5 -13 10 -16 6 -3 10 -2 10 4 0 5 -4 13 -10 16 -5 3
-10 2 -10 -4z"/>
<path d="M3035 800 c-3 -5 -1 -10 4 -10 6 0 11 5 11 10 0 6 -2 10 -4 10 -3 0
-8 -4 -11 -10z"/>
<path d="M1441 764 c0 -11 3 -14 6 -6 3 7 2 16 -1 19 -3 4 -6 -2 -5 -13z"/>
<path d="M2490 737 c0 -9 5 -19 10 -22 6 -4 8 -16 5 -28 -5 -17 -4 -19 4 -7 7
10 11 11 11 3 0 -18 -79 -97 -88 -89 -4 4 7 19 23 33 20 16 23 21 8 14 -12 -6
-25 -16 -28 -21 -4 -6 -15 -8 -26 -5 -11 4 -19 2 -19 -5 0 -6 4 -9 9 -5 5 3
16 -4 24 -15 14 -20 15 -20 50 15 19 19 32 35 29 35 -4 0 1 5 11 11 9 5 17 17
17 26 0 9 6 13 14 10 10 -4 13 -1 10 8 -3 8 -9 14 -12 13 -19 -2 -33 3 -28 11
3 5 -1 14 -9 21 -12 10 -15 10 -15 -3z"/>
<path d="M1761 723 c-2 -20 20 -26 35 -11 13 13 13 15 0 15 -8 0 -13 -4 -10
-9 3 -4 1 -8 -5 -8 -5 0 -12 6 -14 13 -4 9 -6 9 -6 0z"/>
<path d="M2472 706 c7 -8 15 -12 17 -11 5 6 -10 25 -20 25 -5 0 -4 -6 3 -14z"/>
<path d="M2380 700 c-8 -5 -12 -12 -9 -15 4 -3 12 1 19 10 14 17 11 19 -10 5z"/>
<path d="M2275 691 c-3 -6 -10 -9 -15 -6 -11 7 -51 -36 -47 -50 2 -5 16 -10
31 -10 15 0 31 -7 36 -15 6 -9 10 -10 10 -3 0 6 -4 15 -10 18 -5 3 -10 11 -10
17 0 6 8 4 18 -5 26 -23 39 -21 82 13 20 16 40 27 44 23 3 -3 6 -1 6 5 0 19
-13 14 -53 -19 -44 -36 -71 -35 -72 3 0 30 -10 44 -20 29z m12 -21 c1 -11 -2
-18 -7 -15 -5 3 -15 -2 -23 -10 -18 -18 -37 -20 -37 -4 0 6 9 13 20 16 11 3
17 10 13 16 -3 5 -1 7 5 3 6 -3 13 -2 17 4 9 14 11 13 12 -10z"/>
<path d="M2450 689 c0 -5 5 -7 10 -4 6 3 10 8 10 11 0 2 -4 4 -10 4 -5 0 -10
-5 -10 -11z"/>
<path d="M1953 673 c0 -11 7 -20 14 -20 10 0 10 4 1 16 -7 9 -13 18 -15 20 -1
2 -1 -5 0 -16z"/>
<path d="M1995 670 c-3 -5 1 -10 10 -10 9 0 13 5 10 10 -3 6 -8 10 -10 10 -2
0 -7 -4 -10 -10z"/>
<path d="M2436 663 c2 -7 -5 -17 -14 -22 -9 -6 -12 -10 -7 -10 13 0 45 24 45
33 0 4 -4 5 -9 2 -5 -4 -11 -3 -14 1 -2 5 -2 2 -1 -4z"/>
<path d="M2470 670 c0 -5 5 -10 10 -10 6 0 10 5 10 10 0 6 -4 10 -10 10 -5 0
-10 -4 -10 -10z"/>
<path d="M2378 637 c-16 -13 -28 -27 -28 -32 0 -6 3 -6 8 0 4 6 20 21 36 33
16 12 25 22 20 22 -5 -1 -21 -11 -36 -23z"/>
<path d="M1602 638 c2 -6 8 -13 14 -15 14 -4 39 15 30 24 -5 4 -11 2 -13 -4
-3 -7 -9 -13 -14 -13 -6 0 -7 5 -4 10 3 6 1 10 -5 10 -7 0 -10 -5 -8 -12z"/>
<path d="M1660 640 c0 -5 5 -10 10 -10 6 0 10 5 10 10 0 6 -4 10 -10 10 -5 0
-10 -4 -10 -10z"/>
<path d="M2013 625 c-12 -8 -20 -23 -19 -32 2 -10 -3 -24 -11 -31 -8 -8 -11
-17 -7 -21 4 -3 9 0 11 7 3 6 9 10 13 7 5 -3 7 4 5 15 -2 11 2 20 8 20 7 0 6
4 -3 11 -12 9 -11 10 8 6 14 -3 20 -1 15 6 -4 7 0 8 11 4 11 -5 16 -3 14 5 -6
18 -21 19 -45 3z"/>
<path d="M1650 610 c0 -15 35 -30 59 -25 11 2 21 0 21 -6 0 -5 5 -9 11 -9 8 0
8 5 -1 15 -7 8 -16 13 -20 10 -4 -3 -10 2 -14 10 -3 8 -11 15 -18 15 -9 0 -9
-3 2 -10 8 -5 12 -12 9 -15 -9 -9 -40 6 -33 16 3 5 0 9 -5 9 -6 0 -11 -4 -11
-10z"/>
<path d="M2165 595 c-28 -29 -31 -40 -13 -51 7 -4 8 -3 4 4 -4 7 4 24 17 38
24 25 26 26 48 10 13 -9 20 -16 16 -16 -15 0 23 -31 42 -35 15 -3 19 1 16 17
-5 25 -13 34 -22 24 -4 -4 -1 -11 6 -15 8 -5 9 -11 3 -15 -5 -3 -15 1 -22 9
-10 12 -10 18 0 30 9 10 9 15 1 15 -6 0 -11 -5 -11 -11 0 -5 -10 -3 -22 5 -29
21 -33 20 -63 -9z"/>
<path d="M2576 605 c4 -8 8 -15 10 -15 2 0 4 7 4 15 0 8 -4 15 -10 15 -5 0 -7
-7 -4 -15z"/>
<path d="M2300 605 c0 -5 5 -17 10 -25 9 -13 11 -13 20 0 5 8 10 20 10 25 0 6
-5 3 -10 -5 -9 -13 -11 -13 -20 0 -5 8 -10 11 -10 5z"/>
<path d="M2370 595 c0 -8 4 -15 10 -15 5 0 7 7 4 15 -4 8 -8 15 -10 15 -2 0
-4 -7 -4 -15z"/>
<path d="M2050 591 c0 -7 -5 -9 -10 -6 -14 9 -25 -24 -12 -37 8 -8 9 -4 5 12
-4 15 -2 21 5 16 12 -7 28 12 18 21 -3 4 -6 1 -6 -6z"/>
<path d="M2557 593 c-14 -14 -6 -19 31 -20 24 0 28 1 12 4 -14 3 -28 9 -31 14
-3 5 -8 6 -12 2z"/>
<path d="M2182 570 c-15 -24 -15 -30 -1 -30 5 0 8 4 5 9 -3 5 1 15 10 22 13
11 15 10 12 -5 -2 -12 4 -20 14 -21 16 -3 16 -1 1 21 -19 29 -25 30 -41 4z"/>
<path d="M2346 574 c-8 -22 -9 -21 19 -21 14 0 28 4 31 9 3 5 12 1 18 -8 10
-13 15 -14 21 -4 5 8 4 11 -3 6 -6 -3 -13 3 -17 14 -6 18 -8 19 -23 4 -14 -15
-17 -15 -28 0 -11 15 -12 15 -18 0z"/>
<path d="M2463 572 c-9 -15 -8 -19 3 -19 7 0 11 4 8 9 -3 4 0 8 5 8 6 0 11 5
11 10 0 16 -14 12 -27 -8z"/>
<path d="M2056 561 c-3 -5 1 -12 10 -15 8 -3 12 -2 9 3 -3 5 3 12 12 14 14 4
13 5 -4 6 -12 0 -24 -3 -27 -8z"/>
</g>
</svg>
